<svg width="237" height="238" viewBox="0 0 237 238" fill="none" xmlns="http://www.w3.org/2000/svg">
<g clip-path="url(#clip0_219_4031)">
<path d="M205.166 197.589C221.846 177.843 231.907 152.325 231.907 124.452C231.907 61.8189 181.132 11.0444 118.499 11.0444C55.8658 11.0444 5.0918 61.8189 5.0918 124.452C5.0918 152.453 15.2453 178.078 32.0635 197.861L205.166 197.589Z" fill="#0074A5"/>
<path d="M157.927 176.722C143.165 201.704 119.363 201.923 119.363 201.923C119.363 201.923 95.5806 201.704 80.8176 176.751C80.4792 177.161 80.1307 177.56 79.759 177.932C77.7783 178.389 75.8272 178.893 73.8965 179.432C74.9584 179.894 75.8823 180.681 76.4993 181.735C85.5771 197.239 101.404 215.758 119.413 215.758C137.423 215.758 153.25 197.239 162.328 181.735C162.94 180.689 163.856 179.906 164.908 179.442C162.965 178.898 161.003 178.391 159.01 177.932C158.63 177.552 158.273 177.143 157.927 176.722Z" fill="#FCAD6D"/>
<path d="M105.94 198.819C98.095 195.687 88.2989 189.396 80.8176 176.751C80.4792 177.162 80.1307 177.561 79.759 177.932C77.7783 178.389 75.8272 178.893 73.8965 179.433C74.9584 179.895 75.8823 180.681 76.4993 181.735C81.7591 190.719 89.2857 200.714 98.1899 207.533C98.6519 207.356 99.0467 207.186 99.3582 207.018C102.81 205.168 104.879 201.375 105.94 198.819Z" fill="#FD995B"/>
<path d="M179.977 48.2426C179.977 35.5914 172.688 30.3491 167.867 28.2657C165.438 27.2154 163.54 25.2999 162.575 22.9086C160.466 17.6812 154.501 8.62338 137.822 3.08813C113.3 -5.05041 91.5034 11.4887 79.7872 14.6391C72.0824 16.7105 66.0278 12.1409 62.7843 8.76873C61.4137 7.34348 58.977 7.7749 58.1989 9.56721C55.6664 15.4006 51.9767 26.8728 55.3526 38.8034C55.5595 39.5343 54.8189 40.186 54.0778 39.9319C53.0983 39.5963 52.2183 39.2834 51.5115 39.027C50.7875 38.765 50.0654 39.419 50.2955 40.13C53.1487 48.949 55.9145 53.9797 58.3965 56.6932C59.495 57.8939 60.2291 59.3673 60.4189 60.9573C60.7878 64.0545 61.4072 67.3559 62.4279 70.4142C63.9346 74.9297 64.8793 79.6086 65.1515 84.3611C65.1547 84.4166 65.1571 84.449 65.1589 84.4555H174.829C174.834 84.4328 174.84 84.3537 174.847 84.2273C175.113 79.5669 176.022 74.9639 177.517 70.5419C180.848 60.6898 179.977 48.2426 179.977 48.2426Z" fill="#41416B"/>
<path d="M94.9788 53.9219C94.9788 53.9219 105.167 41.7178 98.069 27.9449C90.9706 14.1721 108.134 3.29736 108.134 3.29736C96.3346 6.75145 86.4366 12.8514 79.7872 14.6391C72.0828 16.711 66.0278 12.1409 62.7843 8.76873C61.4137 7.34349 58.977 7.7749 58.1989 9.56722C55.6664 15.4006 51.9767 26.8728 55.3526 38.8034C55.5595 39.5343 54.8189 40.186 54.0778 39.9319C53.0983 39.5963 52.2183 39.2834 51.5115 39.027C50.7875 38.765 50.0654 39.419 50.2955 40.13C53.1487 48.949 55.9145 53.9802 58.3965 56.6932C59.495 57.8939 60.2291 59.3673 60.4189 60.9573C60.7878 64.0545 61.4072 67.3554 62.4279 70.4142C63.9346 74.9297 64.8793 79.6086 65.1515 84.3611C65.1547 84.4166 65.1571 84.449 65.1589 84.4555H88.2863L94.9788 53.9219Z" fill="#35355E"/>
<path d="M178.332 83.9666C175.873 81.7128 170.974 82.8552 168.856 84.2355C169.32 87.1254 169.346 90.0814 168.946 93.0008L166.446 111.206C166.446 112.673 166.4 114.113 166.314 115.528C172.41 117.366 175.437 111.894 175.947 108.139C176.167 106.523 176.526 104.93 177.023 103.375C178.645 98.3111 184.494 89.6134 178.332 83.9666Z" fill="#FCAD6D"/>
<path d="M173.704 101.192C171.441 101.192 169.443 100.083 168.206 98.3848L166.446 111.206C166.446 112.673 166.4 114.113 166.314 115.528C172.41 117.367 175.437 111.895 175.947 108.139C176.167 106.523 176.526 104.93 177.024 103.375C177.443 102.065 178.146 100.51 178.85 98.8291C177.603 100.274 175.762 101.192 173.704 101.192Z" fill="#FD995B"/>
<path d="M60.3947 83.9666C62.854 81.7128 67.7532 82.8552 69.8714 84.2355C69.4071 87.1254 69.3808 90.0814 69.7821 93.0008L72.2817 111.206C72.2817 112.673 72.328 114.113 72.4132 115.528C66.3183 117.366 63.2905 111.894 62.7804 108.139C62.561 106.523 62.2018 104.93 61.7042 103.375C60.0817 98.3111 54.2327 89.6134 60.3947 83.9666Z" fill="#FCAD6D"/>
<path d="M165.712 74.7805C164.198 72.4059 163.533 69.5971 163.736 66.7961C163.858 65.1001 163.94 63.0611 163.896 60.8572C163.878 60.5675 163.869 60.2532 163.869 59.9106C163.846 59.2686 163.81 58.615 163.762 57.954C163.168 52.0545 159.998 47.8056 157.473 45.3078C155.786 43.6396 153.186 43.3118 151.109 44.457C119.893 61.6701 94.0223 55.3109 80.0935 49.0415C78.4058 48.2819 76.4589 49.2665 76.0154 51.0634C74.6258 56.6949 74.6966 62.7847 74.9966 66.8651C75.2007 69.6443 74.5166 72.4244 73.0145 74.781C72.1489 76.1391 71.4564 77.5769 70.9023 78.9998C69.1054 83.6153 68.5819 88.6214 69.2549 93.523L71.755 111.732C71.755 111.765 71.7564 111.797 71.7564 111.829C74.3268 119.326 79.5278 130.074 88.8208 133.124L88.9384 133.158C94.531 134.765 98.8549 139.176 100.688 144.802C103.278 152.749 110.627 154.862 119.362 154.862C128.101 154.862 135.445 152.748 138.034 144.805C139.869 139.179 144.192 134.766 149.785 133.158L149.903 133.124C159.197 130.073 164.399 119.324 166.97 111.827C166.97 111.795 166.972 111.764 166.972 111.732L169.471 93.5271C170.138 88.6737 169.632 83.7166 167.877 79.1373C167.315 77.6685 166.606 76.1822 165.712 74.7805Z" fill="#F9BA8F"/>
<path d="M65.0243 101.192C67.2864 101.192 69.2847 100.083 70.5216 98.3848L72.282 111.206C72.282 112.673 72.3282 114.113 72.413 115.528C66.3176 117.367 63.2903 111.895 62.7802 108.139C62.5608 106.523 62.2016 104.93 61.7035 103.375C61.2841 102.065 60.5815 100.51 59.877 98.8291C61.1249 100.274 62.9658 101.192 65.0243 101.192Z" fill="#FD995B"/>
<path d="M90.0804 93.5224C89.2866 86.2305 90.7086 79.4362 93.061 74.7809C94.252 72.4243 94.7945 69.6442 94.6325 66.865C94.4348 63.4688 94.3635 58.6797 94.9792 53.9217C89.1394 52.6686 84.1341 50.8578 80.1185 49.0525C78.4197 48.2887 76.4626 49.2543 76.0164 51.0624C74.6263 56.6944 74.6976 62.7846 74.9971 66.865C75.2013 69.6442 74.5171 72.4239 73.015 74.7809C70.0076 79.4992 68.2644 86.3046 69.2554 93.5224L71.756 111.732C71.756 111.764 71.7574 111.796 71.7578 111.829C74.3282 119.326 79.5293 130.073 88.8223 133.124L88.9399 133.157C91.6019 133.923 93.9715 135.328 95.9267 137.192C93.5646 129.843 92.0634 121.356 92.0634 111.732L90.0804 93.5224Z" fill="#FCAD6D"/>
<path d="M136.42 92.956C136.42 92.0992 136.58 91.2841 136.867 90.543C135.753 91.0896 134.853 91.7085 134.213 92.2311C132.719 93.4495 130.122 94.995 128.699 95.8121C128.43 95.9667 128.54 96.3772 128.85 96.3772H128.99C130.31 96.3772 131.623 96.5832 132.876 96.9961C135.051 97.7122 137.131 98.0682 139.055 98.1858C137.474 97.1017 136.42 95.1659 136.42 92.956Z" fill="#FFF5EE"/>
<path d="M154.11 94.2965C151.512 91.8599 149.016 90.4536 146.706 89.7417C147.226 90.6772 147.526 91.7775 147.526 92.956C147.526 94.8821 146.725 96.5999 145.473 97.727C147.363 97.3363 148.839 96.7929 149.753 96.3768C151.627 95.5232 153.045 95.176 153.888 95.0349C154.238 94.9765 154.369 94.54 154.11 94.2965Z" fill="#FFF5EE"/>
<path d="M136.517 90.7203C136.2 91.4438 136.023 92.2423 136.023 93.0829C136.023 95.2576 137.201 97.1559 138.952 98.1794C141.478 98.3441 143.738 98.0956 145.589 97.7035C146.949 96.6227 147.822 94.9553 147.822 93.0829C147.822 91.8563 147.448 90.7171 146.806 89.7737C142.576 88.435 138.968 89.4335 136.517 90.7203Z" fill="#41416B"/>
<path d="M144.124 93.4531C144.124 94.702 143.112 95.7143 141.863 95.7143C140.614 95.7143 139.602 94.702 139.602 93.4531C139.602 92.2042 140.614 91.1919 141.863 91.1919C143.112 91.1919 144.124 92.2042 144.124 93.4531Z" fill="#35355E"/>
<path d="M159.107 85.922C158.769 83.7006 157.423 78.5376 152.171 77.3438C146.867 76.1384 135.683 78.4103 131.155 79.4342C129.949 79.7068 128.993 80.6243 128.669 81.8181L127.737 85.2583C127.658 85.5503 127.926 85.817 128.218 85.7355C131.65 84.7722 147.458 80.4979 152.273 82.0426C155.945 83.2202 157.831 85.056 158.664 86.1151C158.823 86.316 159.146 86.1752 159.107 85.922Z" fill="#41416B"/>
<path d="M103.512 92.956C103.512 92.0992 103.352 91.2841 103.065 90.543C104.179 91.0896 105.078 91.7085 105.719 92.2311C107.213 93.4495 109.81 94.995 111.232 95.8121C111.501 95.9667 111.392 96.3772 111.081 96.3772H110.941C109.621 96.3772 108.309 96.5832 107.055 96.9961C104.881 97.7122 102.801 98.0682 100.877 98.1858C102.458 97.1017 103.512 95.1659 103.512 92.956Z" fill="#FFF5EE"/>
<path d="M85.8217 94.2965C88.4195 91.8599 90.9163 90.4536 93.2257 89.7417C92.7063 90.6772 92.4059 91.7775 92.4059 92.956C92.4059 94.8821 93.2072 96.5999 94.4593 97.727C92.5688 97.3363 91.0931 96.7929 90.1794 96.3768C88.3047 95.5232 86.8873 95.176 86.0444 95.0349C85.6935 94.9765 85.5625 94.54 85.8217 94.2965Z" fill="#FFF5EE"/>
<path d="M103.415 90.7203C103.731 91.4438 103.908 92.2423 103.908 93.0829C103.908 95.2576 102.73 97.1559 100.979 98.1794C98.4533 98.3441 96.1939 98.0956 94.3428 97.7035C92.9824 96.6227 92.1094 94.9553 92.1094 93.0829C92.1094 91.8563 92.4839 90.7171 93.125 89.7737C97.3553 88.435 100.963 89.4335 103.415 90.7203Z" fill="#41416B"/>
<path d="M95.8086 93.4531C95.8086 94.702 96.8209 95.7143 98.0698 95.7143C99.3187 95.7143 100.331 94.702 100.331 93.4531C100.331 92.2042 99.3187 91.1919 98.0698 91.1919C96.8209 91.1919 95.8086 92.2042 95.8086 93.4531Z" fill="#35355E"/>
<path d="M80.8235 85.922C81.1614 83.7006 82.5075 78.5376 87.7599 77.3438C93.0637 76.1384 104.248 78.4103 108.776 79.4342C109.982 79.7068 110.938 80.6243 111.261 81.8181L112.194 85.2583C112.273 85.5503 112.004 85.817 111.713 85.7355C108.28 84.7722 92.473 80.4979 87.6576 82.0426C83.9855 83.2202 82.0996 85.056 81.266 86.1151C81.1086 86.316 80.785 86.1752 80.8235 85.922Z" fill="#41416B"/>
<path d="M133.216 138.699L128.167 140.69C127.599 140.914 126.972 140.94 126.387 140.764L120.568 139.009L114.75 140.764C114.165 140.94 113.538 140.914 112.97 140.69L107.921 138.699C106.526 138.149 105.841 136.572 106.391 135.178C106.94 133.787 108.513 133.097 109.913 133.648L114.085 135.293L119.759 133.582C120.309 133.41 120.882 133.422 121.378 133.582L127.052 135.293L131.224 133.648C132.616 133.1 134.194 133.779 134.745 135.178C135.296 136.573 134.611 138.149 133.216 138.699Z" fill="#FCAD6D"/>
<path d="M139.974 77.7544C136.456 78.2863 133.156 78.982 131.155 79.4342C129.949 79.7069 128.993 80.6243 128.669 81.8181L127.737 85.2583C127.658 85.5504 127.926 85.817 128.218 85.7356C130.121 85.2014 135.828 83.6507 141.357 82.637C139.083 82.1977 138.25 79.3421 139.974 77.7544Z" fill="#35355E"/>
<path d="M96.7438 77.3295C93.3295 76.9485 90.0147 76.8323 87.7618 77.3443C82.5089 78.5381 81.1633 83.7007 80.8254 85.9226C80.787 86.1753 81.1101 86.3165 81.2684 86.1156C82.1021 85.0565 83.9879 83.2207 87.66 82.0431C89.4926 81.4552 92.918 81.7112 96.6466 82.3056C94.7066 81.1798 94.7691 78.3724 96.7438 77.3295Z" fill="#35355E"/>
<path d="M168.006 104.202C168.006 104.202 163.636 127.781 149.249 132.504L149.134 132.537C143.66 134.109 139.43 138.428 137.635 143.934C135.101 151.706 127.915 153.774 119.363 153.774C110.815 153.774 103.624 151.707 101.09 143.931C99.2957 138.426 95.0644 134.109 89.5921 132.537L89.4773 132.504C75.0902 127.781 70.7219 104.202 70.7219 104.202C59.663 202.803 119.363 203.348 119.363 203.348C119.363 203.348 179.066 202.803 168.006 104.202Z" fill="#41416B"/>
<path d="M122.311 145.222H118.826C117.326 145.222 116.111 146.438 116.111 147.937C116.111 149.437 117.327 150.652 118.826 150.652H122.311C123.811 150.652 125.026 149.436 125.026 147.937C125.026 146.438 123.811 145.222 122.311 145.222Z" fill="#FCAD6D"/>
<path d="M89.4765 133.448L89.5913 133.481C93.3088 134.549 96.4504 136.886 98.6473 139.999L101.185 138.313C102.643 137.345 104.361 136.818 106.11 136.874C112.191 137.069 117.518 135.297 119.617 134.486C120.23 134.249 120.906 134.249 121.519 134.486C123.618 135.297 128.945 137.069 135.026 136.874C136.775 136.818 138.493 137.345 139.951 138.313L140.893 138.939C143.024 136.359 145.852 134.424 149.133 133.481L149.248 133.449C150.602 133.004 151.868 132.392 153.049 131.649C148.916 124.579 139.446 114.645 120.568 121.492C100.766 114.31 91.3142 125.591 87.5176 132.664C88.1485 132.963 88.8016 133.226 89.4765 133.448Z" fill="#41416B"/>
<path d="M111.46 120.009L113.53 119.573C117.376 123.372 123.767 123.366 127.607 119.573L129.677 120.009C131.165 120.321 132.629 119.37 132.943 117.879C133.256 116.389 132.303 114.927 130.813 114.613L127.099 113.831C125.889 113.577 124.71 114.062 124.139 115.157C122.637 117.48 118.503 117.483 116.999 115.157C116.428 114.062 115.248 113.578 114.039 113.831L110.324 114.613C108.834 114.927 107.881 116.389 108.195 117.879C108.508 119.369 109.971 120.322 111.46 120.009Z" fill="#FCAD6D"/>
<path d="M118.5 237.86C153.479 237.86 184.755 222.019 205.558 197.125C202.743 196.464 200.579 195.014 196.716 192.836C187.193 187.467 177.542 182.472 167.258 179.211C164.845 178.446 162.213 179.462 160.934 181.646C152.145 196.657 136.821 214.587 119.385 214.587C101.949 214.587 86.625 196.657 77.8361 181.646C76.5571 179.462 73.9251 178.446 71.5125 179.211C61.2285 182.471 51.5772 187.467 42.0551 192.836C37.5201 195.393 35.327 196.947 31.6738 197.399C52.4766 222.135 83.6495 237.86 118.5 237.86Z" fill="#FFF5EE"/>
<path d="M77.8361 181.647C76.5571 179.463 73.9251 178.447 71.5125 179.212C61.2285 182.472 51.5772 187.467 42.0551 192.837C37.5201 195.394 35.327 196.948 31.6738 197.4C40.827 208.283 51.9892 217.42 64.5872 224.242C75.0009 212.375 94.9973 209.357 99.3586 207.019L99.3596 207.018C90.5109 200.411 83.0311 190.52 77.8361 181.647Z" fill="#FCE6D6"/>
<path d="M105.013 119.459C95.4572 120.894 90.1404 127.781 87.5195 132.663C88.1509 132.963 88.8036 133.226 89.4785 133.448L89.5933 133.481C93.3108 134.549 96.4524 136.886 98.6497 139.999L101.187 138.313C102.645 137.345 104.363 136.818 106.112 136.874C107.368 136.915 108.588 136.868 109.758 136.766C99.0742 130.342 105.01 119.463 105.013 119.459Z" fill="#35355E"/>
<path d="M117.199 176.092C107.743 164.281 120.569 153.775 120.569 153.775L120.562 153.759C120.165 153.769 119.766 153.775 119.363 153.775C110.815 153.775 103.624 151.708 101.09 143.932C99.2957 138.426 95.0649 134.109 89.5921 132.537L89.4773 132.504C75.0902 127.781 70.7219 104.202 70.7219 104.202C59.663 202.803 119.363 203.348 119.363 203.348C119.363 203.348 130.022 192.108 117.199 176.092Z" fill="#35355E"/>
</g>
<defs>
<clipPath id="clip0_219_4031">
<rect width="237" height="237" fill="white" transform="translate(0 0.859863)"/>
</clipPath>
</defs>
</svg>
