<svg width="237" height="238" viewBox="0 0 237 238" fill="none" xmlns="http://www.w3.org/2000/svg">
<g clip-path="url(#clip0_219_4084)">
<path d="M235.302 142.121L220.333 124.865C231.122 111.368 237 94.6804 237 77.2368C237 35.1226 202.738 0.859863 160.623 0.859863C118.508 0.859863 84.2461 35.1226 84.2461 77.2368C84.2461 119.351 118.509 153.614 160.623 153.614H230.057C232.776 153.614 235.245 152.027 236.373 149.553C237.502 147.08 237.083 144.175 235.302 142.121ZM160.623 124.452C156.788 124.452 153.68 121.343 153.68 117.508C153.68 113.674 156.788 110.565 160.623 110.565C164.458 110.565 167.566 113.674 167.566 117.508C167.566 121.343 164.458 124.452 160.623 124.452ZM179.941 74.534C176.558 78.0973 172.248 80.6344 167.567 81.9055V96.4866C167.567 100.321 164.458 103.43 160.624 103.43C156.789 103.43 153.68 100.321 153.68 96.4866V75.8921C153.68 72.0575 156.789 68.9488 160.624 68.9488C164.152 68.9488 167.436 67.5365 169.871 64.9725C172.303 62.4109 173.541 59.0503 173.357 55.5097C173.013 48.8806 167.537 43.5824 160.89 43.4486C160.803 43.4467 160.716 43.4458 160.629 43.4458C154.281 43.4458 148.873 48.1168 147.995 54.4103C147.913 54.9963 147.872 55.5976 147.872 56.1975C147.872 60.0321 144.763 63.1409 140.929 63.1409C137.094 63.1409 133.986 60.0321 133.986 56.1975C133.986 54.9579 134.072 53.7113 134.242 52.4911C136.104 39.1493 147.695 29.2883 161.17 29.5646C175.061 29.8447 186.506 40.9249 187.225 54.7899C187.608 62.1711 185.021 69.1834 179.941 74.534Z" fill="#EAD6ED"/>
<path d="M99.5216 154.539H53.2325C49.398 154.539 46.2892 151.431 46.2892 147.596C46.2892 143.761 49.398 140.653 53.2325 140.653H96.4638C82.1165 126.139 72.6397 106.8 70.7252 85.3149C31.2401 88.2173 0.000118922 121.27 0.000118922 161.483C0.000118922 178.926 5.87837 195.613 16.6674 209.11L1.69846 226.367C-0.0832014 228.421 -0.502117 231.325 0.626873 233.799C1.75586 236.272 4.22446 237.86 6.94348 237.86H76.3771C116.591 237.86 149.642 206.62 152.545 167.135C135.264 165.595 119.373 159.16 106.262 149.237C105.523 152.278 102.79 154.539 99.5216 154.539ZM99.5216 182.313H53.2325C49.398 182.313 46.2892 179.204 46.2892 175.369C46.2892 171.535 49.398 168.426 53.2325 168.426H99.5216C103.356 168.426 106.465 171.535 106.465 175.369C106.465 179.204 103.356 182.313 99.5216 182.313Z" fill="#EAD6ED"/>
</g>
<defs>
<clipPath id="clip0_219_4084">
<rect width="237" height="237" fill="white" transform="translate(0 0.859863)"/>
</clipPath>
</defs>
</svg>
