<svg width="33" height="33" viewBox="0 0 33 33" fill="none" xmlns="http://www.w3.org/2000/svg">
<path d="M8.63559 18.2417V15.0332C8.63559 14.8877 8.55209 14.7557 8.42059 14.6937C8.28959 14.6322 8.13409 14.6517 8.02209 14.7442L1.36159 20.2437C1.27559 20.3147 1.22559 20.4207 1.22559 20.5327C1.22559 20.6447 1.27559 20.7507 1.36159 20.8217L8.02159 26.3217C8.13359 26.4147 8.28909 26.4337 8.42009 26.3722C8.55159 26.3102 8.63509 26.1782 8.63509 26.0327V23.0587C11.5656 23.6892 13.7251 26.3197 13.7251 29.3492V30.6462C13.7251 30.8532 13.8931 31.0212 14.1001 31.0212H18.1001C18.3071 31.0212 18.4751 30.8532 18.4751 30.6462V29.3492C18.4751 23.7287 14.1801 18.9152 8.63509 18.2412L8.63559 18.2417Z" fill="#26A69A"/>
<path d="M30.8396 15.3242L24.1796 9.82417C24.0671 9.73167 23.9121 9.71217 23.7811 9.77367C23.6496 9.83567 23.5661 9.96767 23.5661 10.1132V13.2712C21.7461 13.3882 20.0056 13.9757 18.4761 14.9862V8.68267H21.6011C21.7466 8.68267 21.8786 8.59917 21.9406 8.46767C22.0026 8.33617 21.9826 8.18117 21.8901 8.06917L16.3896 1.40867C16.2476 1.23617 15.9536 1.23617 15.8116 1.40867L10.3116 8.06867C10.2191 8.18067 10.1996 8.33617 10.2611 8.46717C10.3231 8.59867 10.4551 8.68217 10.6006 8.68217H13.7256V19.3297C15.8866 20.7327 17.5691 22.8012 18.4756 25.2217V23.7567C18.4756 20.8142 20.6816 18.3732 23.5656 18.0362V21.1132C23.5656 21.2587 23.6491 21.3907 23.7806 21.4527C23.9121 21.5147 24.0671 21.4952 24.1791 21.4022L30.8391 15.9022C30.9251 15.8312 30.9751 15.7252 30.9751 15.6132C30.9751 15.5012 30.9256 15.3952 30.8396 15.3242Z" fill="#26A69A"/>
</svg>
