<svg width="33" height="33" viewBox="0 0 33 33" fill="none" xmlns="http://www.w3.org/2000/svg">
<g clip-path="url(#clip0_687_8125)">
<path d="M31.7632 22.6455L28.7312 19.6133L22.459 25.8855C21.3394 27.0051 19.9341 27.7351 18.4077 28.0083L22.4041 32.0046C22.77 32.3709 23.3638 32.3709 23.7297 32.0046L31.7632 23.9714C32.1294 23.6052 32.1294 23.0115 31.7632 22.6455Z" fill="#26A69A"/>
<path d="M27.4959 18.1964C28.5528 17.1397 28.553 15.4202 27.4973 14.3629C27.4961 14.3616 27.4949 14.3604 27.4937 14.3592C27.2324 14.0982 26.9273 13.897 26.595 13.7625C26.8831 13.0338 26.9439 11.8013 25.9895 10.8467C25.9871 10.8443 25.9846 10.8416 25.982 10.8392C25.7219 10.5809 25.4187 10.3817 25.0886 10.2479C25.3767 9.5196 25.4378 8.28693 24.4839 7.33283C24.4832 7.3321 24.4827 7.33161 24.4822 7.33112C24.2207 7.06964 23.9153 6.86798 23.5825 6.73346C23.8706 6.0047 23.9314 4.77204 22.9771 3.81744C22.9768 3.81744 22.9768 3.8172 22.9766 3.8172C22.9763 3.81696 22.9761 3.81671 22.9758 3.81647C21.9185 2.75909 20.1983 2.75909 19.1409 3.81647L17.3633 5.59381L18.2722 6.50275C19.7869 8.0174 19.7869 10.4818 18.2725 11.9964C17.7627 12.5059 17.1365 12.856 16.4539 13.0228C16.2905 13.6883 15.9497 14.3192 15.4304 14.8382C14.9214 15.3472 14.2962 15.6971 13.6143 15.8641C13.4475 16.5457 13.0974 17.1712 12.5886 17.68C12.0796 18.189 11.4544 18.5389 10.7725 18.7059C10.6057 19.3875 10.2556 20.013 9.74683 20.522C9.01319 21.2554 8.0376 21.6597 7 21.6597C5.96241 21.6597 4.98682 21.2557 4.25318 20.5218L3.34424 19.6129L0.312256 22.6451C-0.0539551 23.0113 -0.0539551 23.6048 0.312256 23.971L8.34546 32.0042C8.71168 32.3704 9.30518 32.3702 9.67139 32.0042L15.4219 26.254H17.042C18.5874 26.254 20.0403 25.6519 21.1331 24.5594L27.4959 18.1964Z" fill="#26A69A"/>
<path d="M5.57923 19.1972C6.36389 19.9821 7.63636 19.9821 8.42102 19.1972C9.20594 18.4125 9.20594 17.1403 8.42102 16.3554C9.20594 17.1403 10.4782 17.1403 11.2631 16.3554C12.0477 15.5707 12.0477 14.2982 11.2631 13.5136C12.0477 14.2982 13.3202 14.2982 14.1049 13.5136C14.8895 12.7289 14.8895 11.4564 14.1049 10.6718C14.8895 11.4564 16.162 11.4564 16.9467 10.6718C17.7316 9.88685 17.7316 8.61463 16.9467 7.82972L12.9398 3.82288C12.1552 3.03821 10.8827 3.03821 10.098 3.82288C9.31336 4.60755 9.31336 5.88001 10.098 6.66468L10.6 7.16687C9.81531 6.38196 8.54285 6.38196 7.75818 7.16687C6.97351 7.95154 6.97351 9.224 7.75818 10.0087L8.76233 11.0128C7.97766 10.2282 6.7052 10.2282 5.92053 11.0128C5.13562 11.7975 5.13562 13.07 5.92053 13.8546L6.92469 14.859C6.13977 14.0741 4.86755 14.0741 4.08264 14.859C3.29797 15.6437 3.29797 16.9159 4.08264 17.7008L5.57923 19.1972Z" fill="#26A69A"/>
<path d="M17.8149 2.49068C17.9536 2.35201 18.1003 2.22457 18.2529 2.10616L17.7046 1.55782C17.4194 1.27242 16.9832 1.20187 16.6226 1.38204L14.3086 2.53902L16.0376 4.26827L17.8149 2.49068Z" fill="#26A69A"/>
</g>
<defs>
<clipPath id="clip0_687_8125">
<rect width="32" height="32" fill="white" transform="translate(0.100098 0.720703)"/>
</clipPath>
</defs>
</svg>
