<svg width="24" height="24" viewBox="0 0 24 24" fill="none" xmlns="http://www.w3.org/2000/svg">
<g clip-path="url(#clip0_687_8095)">
<path d="M0.703125 10.5938H8.71219L11.5247 6.375H0.703125C0.315 6.375 0 6.69 0 7.07812V9.89062C0 10.2787 0.315 10.5938 0.703125 10.5938Z" fill="#26A69A"/>
<path d="M23.2971 6.375H19.9756L17.1631 10.5938H23.2971C23.6853 10.5938 24.0003 10.2787 24.0003 9.89062V7.07812C24.0003 6.69 23.6853 6.375 23.2971 6.375Z" fill="#26A69A"/>
<path d="M6.83719 13.4062H0.703125C0.315 13.4062 0 13.7212 0 14.1094V16.9219C0 17.31 0.315 17.625 0.703125 17.625H4.02469L6.83719 13.4062Z" fill="#26A69A"/>
<path d="M23.2971 13.4062H15.2881L12.4756 17.625H23.2971C23.6853 17.625 24.0003 17.31 24.0003 16.9219V14.1094C24.0003 13.7212 23.6853 13.4062 23.2971 13.4062Z" fill="#26A69A"/>
<path d="M20.4115 1.91846L18.0713 0.358362C17.7482 0.143018 17.3116 0.2303 17.0962 0.553409L3.39351 21.1076C3.17822 21.4305 3.2654 21.8673 3.58851 22.0827L5.9287 23.6428C6.25129 23.8577 6.68798 23.7714 6.90375 23.4477L20.6065 2.8935C20.8218 2.57063 20.7346 2.13385 20.4115 1.91846Z" fill="#26A69A"/>
</g>
<defs>
<clipPath id="clip0_687_8095">
<rect width="24" height="24" fill="white"/>
</clipPath>
</defs>
</svg>
