<svg width="24" height="25" viewBox="0 0 24 25" fill="none" xmlns="http://www.w3.org/2000/svg">
<g clip-path="url(#clip0_687_8067)">
<path d="M10.6283 12.8773L12.8632 10.6424C12.3606 10.3216 11.7646 10.1348 11.1254 10.1348C9.33905 10.1348 7.88574 11.5881 7.88574 13.3744C7.88574 15.1608 9.33905 16.6141 11.1254 16.6141C12.9118 16.6141 14.3651 15.1608 14.3651 13.3744C14.3651 12.7353 14.1783 12.1393 13.8575 11.6367L11.6226 13.8716L10.6283 12.8773Z" fill="#26A69A"/>
<path d="M22.2507 13.3754C22.2507 11.4646 21.7626 9.59611 20.8359 7.9425L18.0657 8.32209C19.1017 9.74105 19.7141 11.4879 19.7141 13.3754C19.7141 18.1112 15.8612 21.9642 11.1253 21.9642C6.38939 21.9642 2.53655 18.1112 2.53655 13.3754C2.53655 8.63948 6.38948 4.78659 11.1254 4.78659C13.0128 4.78659 14.7597 5.39906 16.1786 6.43505L16.5582 3.66483C14.9046 2.73811 13.0361 2.25 11.1254 2.25C8.15367 2.25 5.35983 3.40725 3.25856 5.50856C1.15725 7.60983 0 10.4037 0 13.3754C0 16.347 1.15725 19.1409 3.25856 21.2422C5.35983 23.3435 8.15363 24.5007 11.1254 24.5007C14.0971 24.5007 16.8909 23.3435 18.9922 21.2422C21.0935 19.1409 22.2507 16.3471 22.2507 13.3754Z" fill="#26A69A"/>
<path d="M11.1249 6.19141C7.16448 6.19141 3.94238 9.41345 3.94238 13.374C3.94238 17.3345 7.16443 20.5565 11.1249 20.5565C15.0855 20.5565 18.3075 17.3345 18.3075 13.374C18.3075 11.6464 17.6943 10.0594 16.6743 8.81898L14.8681 10.6252C15.4352 11.3955 15.7709 12.3462 15.7709 13.374C15.7709 15.9357 13.6868 18.0199 11.125 18.0199C8.56323 18.0199 6.47907 15.9357 6.47907 13.374C6.47907 10.8122 8.56323 8.72805 11.125 8.72805C12.1528 8.72805 13.1034 9.06372 13.8737 9.63091L15.68 7.82467C14.4395 6.80458 12.8525 6.19141 11.1249 6.19141Z" fill="#26A69A"/>
<path d="M21.1079 0.5L17.9827 3.6252L17.5234 6.9763L20.8745 6.51706L23.9997 3.39186L21.8903 2.60947L21.1079 0.5Z" fill="#26A69A"/>
</g>
<defs>
<clipPath id="clip0_687_8067">
<rect width="24" height="24" fill="white" transform="translate(0 0.5)"/>
</clipPath>
</defs>
</svg>
