<svg width="33" height="33" viewBox="0 0 33 33" fill="none" xmlns="http://www.w3.org/2000/svg">
<g clip-path="url(#clip0_687_8179)">
<path d="M23.4761 23.4004C22.9601 21.5184 21.1301 20.3484 19.3521 19.4004C16.5881 17.9284 13.9441 16.6264 11.1641 15.1504C9.7701 14.4124 8.4201 13.7204 7.4141 12.7124C6.1701 11.4704 5.1541 9.47439 4.8501 7.65039C4.7501 7.05039 4.7261 6.12239 4.7261 5.15039C3.2901 6.36639 2.0741 8.30839 1.2881 10.3384C0.680098 11.9044 0.196098 13.6264 0.100098 15.5264C0.100098 15.9624 0.100098 16.4024 0.100098 16.8384C0.344098 21.3364 2.2241 24.6904 4.6001 27.2764C6.9861 29.8704 10.4621 31.6604 14.8501 32.1504C15.5601 32.1504 16.2681 32.1504 16.9761 32.1504C18.7661 31.8704 20.2681 31.0444 21.4141 29.8384C22.6561 28.5284 24.2081 26.0604 23.4761 23.4004Z" fill="#26A69A"/>
<path d="M16.6 0.150391C16.328 0.150391 16.058 0.150391 15.788 0.150391C14.144 0.426391 12.54 0.896391 11.6 1.96439C10.94 2.71239 10.42 4.04439 10.35 4.90039C10.054 8.57839 12.69 9.91639 15.162 11.2144C17.724 12.5564 20.37 13.9204 22.976 15.2764C24.318 15.9764 25.54 16.6984 26.476 17.7144C28.18 19.5624 29.244 21.9704 29.038 25.4644C29.46 25.0564 29.842 24.4864 30.162 23.9024C31.092 22.2024 31.844 20.0364 32.038 17.5264C32.028 17.4524 32.05 17.4144 32.1 17.4004C32.1 16.5664 32.1 15.7344 32.1 14.9004C31 6.10839 25.016 0.828391 16.6 0.150391Z" fill="#26A69A"/>
</g>
<defs>
<clipPath id="clip0_687_8179">
<rect width="32" height="32" fill="white" transform="translate(0.100098 0.150391)"/>
</clipPath>
</defs>
</svg>
