<svg width="33" height="33" viewBox="0 0 33 33" fill="none" xmlns="http://www.w3.org/2000/svg">
<path d="M28.8478 15.0395L27.0345 12.9328C26.6878 12.5328 26.4078 11.7861 26.4078 11.2528V8.98615C26.4078 7.57281 25.2478 6.41281 23.8345 6.41281H21.5678C21.0478 6.41281 20.2878 6.13281 19.8878 5.78615L17.7811 3.97281C16.8611 3.18615 15.3545 3.18615 14.4211 3.97281L12.3277 5.79948C11.9277 6.13281 11.1677 6.41281 10.6477 6.41281H8.34108C6.92775 6.41281 5.76775 7.57281 5.76775 8.98615V11.2661C5.76775 11.7861 5.48775 12.5328 5.15441 12.9328L3.35441 15.0528C2.58108 15.9728 2.58108 17.4662 3.35441 18.3862L5.15441 20.5062C5.48775 20.9062 5.76775 21.6528 5.76775 22.1728V24.4528C5.76775 25.8662 6.92775 27.0262 8.34108 27.0262H10.6477C11.1677 27.0262 11.9277 27.3062 12.3277 27.6528L14.4345 29.4662C15.3545 30.2528 16.8611 30.2528 17.7945 29.4662L19.9011 27.6528C20.3011 27.3062 21.0478 27.0262 21.5811 27.0262H23.8478C25.2611 27.0262 26.4211 25.8662 26.4211 24.4528V22.1862C26.4211 21.6662 26.7011 20.9062 27.0478 20.5062L28.8611 18.3995C29.6345 17.4795 29.6345 15.9595 28.8478 15.0395ZM21.6478 14.1995L15.2078 20.6395C15.0211 20.8262 14.7678 20.9328 14.5011 20.9328C14.2345 20.9328 13.9811 20.8262 13.7945 20.6395L10.5677 17.4128C10.1811 17.0262 10.1811 16.3862 10.5677 15.9995C10.9544 15.6128 11.5944 15.6128 11.9811 15.9995L14.5011 18.5195L20.2345 12.7861C20.6211 12.3995 21.2611 12.3995 21.6478 12.7861C22.0345 13.1728 22.0345 13.8128 21.6478 14.1995Z" fill="#26A69A"/>
</svg>
