<svg width="24" height="25" viewBox="0 0 24 25" fill="none" xmlns="http://www.w3.org/2000/svg">
<path d="M5.7998 5.44923C6.2998 5.29923 6.7998 5.24923 7.2998 5.24923C8.0998 5.24923 8.8998 5.44923 9.5998 5.79923C9.0998 4.69923 7.8498 4.19923 6.7498 4.64923C6.3498 4.84923 6.0498 5.09923 5.7998 5.44923Z" fill="#26A69A"/>
<path d="M14.4004 5.8C15.1004 5.45 15.9004 5.25 16.7004 5.25C17.2004 5.25 17.7004 5.35 18.2004 5.45C17.7504 4.85 17.1004 4.5 16.3504 4.5C15.5004 4.5 14.7004 5 14.4004 5.8Z" fill="#26A69A"/>
<path d="M14.3998 10.4994C16.3998 9.19938 18.9998 9.14938 20.9998 10.3994L19.4498 7.29938C19.3998 7.19938 19.3498 7.14938 19.2498 7.09938C19.2498 7.09938 18.4498 6.29938 16.6498 6.29938C15.4998 6.29938 14.7998 6.59938 14.1998 7.14938C14.0998 7.19938 14.0498 7.34938 13.9998 7.44938L13.7498 8.99938H13.1998C13.0498 8.89938 12.9498 8.79938 12.7998 8.74938C12.2998 8.54938 11.7498 8.54938 11.2498 8.74938C11.0998 8.79938 10.9498 8.89938 10.8498 8.99938H10.2998L9.9998 7.39938C9.9998 7.34938 9.9498 7.24938 9.9498 7.24938C8.9998 6.44938 8.0998 6.29938 7.3498 6.29938C6.4998 6.29938 6.0498 6.24938 4.7498 7.09938C4.6498 7.14938 4.5998 7.19938 4.5498 7.29938L3.0498 10.3994C5.0498 9.19938 7.5998 9.19938 9.5998 10.4994C9.9498 10.7494 11.9998 13.2494 11.9998 13.2494C11.9998 13.2494 13.9998 10.7494 14.3998 10.4994Z" fill="#26A69A"/>
<path d="M6.25 10.5C3.35 10.5 1 12.85 1 15.75C1 18.65 3.35 21 6.25 21C9.15 21 11.5 18.65 11.5 15.75C11.5 12.85 9.15 10.5 6.25 10.5ZM6.25 19.2C4.35 19.2 2.75 17.65 2.75 15.7C2.75 13.8 4.3 12.2 6.25 12.2C8.2 12.2 9.75 13.75 9.75 15.7C9.75 17.65 8.15 19.2 6.25 19.2Z" fill="#26A69A"/>
<path d="M17.75 10.5C14.85 10.5 12.5 12.85 12.5 15.75C12.5 18.65 14.85 21 17.75 21C20.65 21 23 18.65 23 15.75C23 12.85 20.65 10.5 17.75 10.5ZM17.75 19.2C15.85 19.2 14.25 17.65 14.25 15.7C14.25 13.8 15.8 12.2 17.75 12.2C19.7 12.2 21.25 13.75 21.25 15.7C21.25 17.65 19.65 19.2 17.75 19.2Z" fill="#26A69A"/>
</svg>
