<svg width="58" height="58" viewBox="0 0 58 58" fill="none" xmlns="http://www.w3.org/2000/svg">
<g clip-path="url(#clip0_225_4493)">
<path d="M21.9312 37.862C27.6142 33.5878 33.8874 34.4226 40.8485 41.1732C35.3956 34.2902 34.8943 27.8703 40.1257 21.982C34.4429 26.2562 28.1696 25.4214 21.2086 18.6708C26.6614 25.5538 27.1627 31.9737 21.9312 37.862Z" fill="#26A69A"/>
<path d="M32.067 12.7491C30.4873 10.7085 30.5416 8.64711 32.4874 6.56046C30.4468 8.14007 28.3854 8.08588 26.2986 6.14004C27.8783 8.18075 27.8242 10.242 25.8783 12.3288C27.919 10.7491 29.9803 10.8033 32.067 12.7491Z" fill="#26A69A"/>
<path d="M9.63803 33.2483C11.6788 31.6688 13.7401 31.7228 15.8267 33.6688C14.2471 31.628 14.3013 29.5668 16.2471 27.48C14.2064 29.0597 12.1451 29.0056 10.0584 27.0597C11.638 29.1004 11.5839 31.1617 9.63803 33.2483Z" fill="#26A69A"/>
<path d="M25.9354 45.2511C27.515 47.2917 27.4608 49.3531 25.5151 51.4398C27.5556 49.8602 29.617 49.9143 31.7038 51.8602C30.1241 49.8195 30.1783 47.7582 32.1241 45.6715C30.0834 47.2512 28.0221 47.1969 25.9354 45.2511Z" fill="#26A69A"/>
</g>
<defs>
<clipPath id="clip0_225_4493">
<rect width="40" height="40" fill="white" transform="translate(0.78125 27.0833) rotate(-41.1141)"/>
</clipPath>
</defs>
</svg>
