<svg width="56" height="56" viewBox="0 0 56 56" fill="none" xmlns="http://www.w3.org/2000/svg">
<g clip-path="url(#clip0_225_4490)">
<path d="M14 14L25.5876 24.563C26.2425 25.1602 27.0995 25.4867 27.9858 25.4766C28.872 25.4666 29.7214 25.1207 30.3625 24.5088L55.125 0.875L31.4913 25.6375C30.8796 26.2786 30.5338 27.1278 30.5238 28.0138C30.5137 28.8998 30.8401 29.7567 31.437 30.4115L42 42L30.4124 31.437C29.7576 30.8401 28.9007 30.5137 28.0147 30.5238C27.1287 30.5338 26.2795 30.8796 25.6384 31.4913L0.875 55.125L24.5088 30.3625C25.1204 29.7214 25.4662 28.8722 25.4762 27.9862C25.4863 27.1002 25.1599 26.2433 24.563 25.5885L14 14Z" fill="#26A69A"/>
</g>
<defs>
<clipPath id="clip0_225_4490">
<rect width="56" height="56" fill="white"/>
</clipPath>
</defs>
</svg>
