<svg width="24" height="25" viewBox="0 0 24 25" fill="none" xmlns="http://www.w3.org/2000/svg">
<path d="M6 15.3637L6 10.0237C6 6.70368 8.35 5.35368 11.22 7.00368L12.5 7.74368C12.81 7.92368 13 8.25368 13 8.61368V16.7737C13 17.1337 12.81 17.4637 12.5 17.6437L11.22 18.3837C8.35 20.0337 6 18.6837 6 15.3637Z" fill="#FFA726"/>
<path d="M14 15.9038V9.47379C14 9.08379 14.42 8.84379 14.75 9.04379L15.85 9.68379C18.72 11.3338 18.72 14.0538 15.85 15.7038L14.75 16.3438C14.42 16.5338 14 16.2938 14 15.9038Z" fill="#FFA726"/>
</svg>
