<svg width="24" height="24" viewBox="0 0 24 24" fill="none" xmlns="http://www.w3.org/2000/svg">
<path d="M6 14.6698L6 9.32983C6 6.00983 8.35 4.65983 11.22 6.30983L12.5 7.04983C12.81 7.22983 13 7.55983 13 7.91983V16.0798C13 16.4398 12.81 16.7698 12.5 16.9498L11.22 17.6898C8.35 19.3398 6 17.9898 6 14.6698Z" fill="#F06292"/>
<path d="M14 15.2099V8.77994C14 8.38994 14.42 8.14994 14.75 8.34994L15.85 8.98994C18.72 10.6399 18.72 13.3599 15.85 15.0099L14.75 15.6499C14.42 15.8399 14 15.5999 14 15.2099Z" fill="#F06292"/>
</svg>
