<svg width="32" height="33" viewBox="0 0 32 33" fill="none" xmlns="http://www.w3.org/2000/svg">
<path d="M8 20.2538L8 13.1338C8 8.70712 11.1333 6.90712 14.96 9.10712L16.6667 10.0938C17.08 10.3338 17.3333 10.7738 17.3333 11.2538V22.1338C17.3333 22.6138 17.08 23.0538 16.6667 23.2938L14.96 24.2805C11.1333 26.4805 8 24.6805 8 20.2538Z" fill="#26A69A"/>
<path d="M18.667 20.9738V12.4004C18.667 11.8804 19.227 11.5604 19.667 11.8271L21.1337 12.6804C24.9603 14.8804 24.9603 18.5071 21.1337 20.7071L19.667 21.5604C19.227 21.8138 18.667 21.4938 18.667 20.9738Z" fill="#26A69A"/>
</svg>
