<svg width="18" height="19" viewBox="0 0 18 19" fill="none" xmlns="http://www.w3.org/2000/svg">
<path d="M10.2977 3.32633L11.6177 5.96633C11.7977 6.33383 12.2777 6.68633 12.6827 6.75383L15.0752 7.15133C16.6052 7.40633 16.9652 8.51633 15.8627 9.61133L14.0027 11.4713C13.6877 11.7863 13.5152 12.3938 13.6127 12.8288L14.1452 15.1313C14.5652 16.9538 13.5977 17.6588 11.9852 16.7063L9.74268 15.3788C9.33768 15.1388 8.67018 15.1388 8.25768 15.3788L6.01518 16.7063C4.41018 17.6588 3.43518 16.9463 3.85518 15.1313L4.38768 12.8288C4.48518 12.3938 4.31268 11.7863 3.99768 11.4713L2.13768 9.61133C1.04268 8.51633 1.39518 7.40633 2.92518 7.15133L5.31768 6.75383C5.71518 6.68633 6.19518 6.33383 6.37518 5.96633L7.69518 3.32633C8.41518 1.89383 9.58518 1.89383 10.2977 3.32633Z" fill="#26A69A"/>
</svg>
