<svg width="24" height="25" viewBox="0 0 24 25" fill="none" xmlns="http://www.w3.org/2000/svg">
<path d="M13.7299 4.20398L15.4899 7.72398C15.7299 8.21398 16.3699 8.68398 16.9099 8.77398L20.0999 9.30398C22.1399 9.64398 22.6199 11.124 21.1499 12.584L18.6699 15.064C18.2499 15.484 18.0199 16.294 18.1499 16.874L18.8599 19.944C19.4199 22.374 18.1299 23.314 15.9799 22.044L12.9899 20.274C12.4499 19.954 11.5599 19.954 11.0099 20.274L8.01991 22.044C5.87991 23.314 4.57991 22.364 5.13991 19.944L5.84991 16.874C5.97991 16.294 5.74991 15.484 5.32991 15.064L2.84991 12.584C1.38991 11.124 1.85991 9.64398 3.89991 9.30398L7.08991 8.77398C7.61991 8.68398 8.25991 8.21398 8.49991 7.72398L10.2599 4.20398C11.2199 2.29398 12.7799 2.29398 13.7299 4.20398Z" fill="#F06292"/>
</svg>
