<svg width="349" height="266" viewBox="0 0 349 266" fill="none" xmlns="http://www.w3.org/2000/svg">
<rect x="4" y="4.69385" width="341" height="280" rx="12" fill="#EAD6ED"/>
<rect x="4" y="4.69385" width="341" height="280" rx="12" stroke="#F57C00" stroke-width="8"/>
<g clip-path="url(#clip0_35_661)">
<path d="M247.512 103.719H224.592V141.319H247.512V103.719Z" fill="#F05540"/>
<path d="M256.263 84.5269H215.84V104.894H256.263V84.5269Z" fill="#F3705A"/>
<path d="M92.4873 178.135V264.694H255.847V178.135C223.758 147.977 205.839 131.135 174.167 101.369C142.495 131.527 124.576 148.369 92.4873 178.135Z" fill="#FFD15C"/>
<path d="M256.264 178.135C224.175 147.977 206.256 131.135 174.584 101.369C158.331 116.252 145.829 128.002 133.327 139.752C120.825 151.502 108.323 163.252 92.4873 178.135V195.76C124.576 165.602 142.495 148.76 174.167 118.993C206.256 149.151 224.175 165.993 255.847 195.76V198.11V178.135H256.264V178.135Z" fill="#F7B64C"/>
<path d="M159.582 264.694H110.407V219.261C110.407 206.336 121.659 196.152 134.994 196.152C148.747 196.152 159.582 206.727 159.582 219.261V264.694Z" fill="#666666"/>
<path d="M238.344 196.152H174.167V249.027H238.344V196.152Z" fill="#333333"/>
<path d="M202.922 202.419H180.835V242.761H202.922V202.419Z" fill="#8AD7F8"/>
<path d="M231.677 202.419H209.59V242.761H231.677V202.419Z" fill="#8AD7F8"/>
<path d="M271.266 162.077L184.169 80.2188C179.168 75.5188 170.416 75.5188 165.416 80.2188L78.735 162.077C73.7342 166.777 73.7342 175.002 78.735 179.702C83.7358 184.402 92.4872 184.402 97.488 179.702L175 106.852L252.513 179.702C257.514 184.402 266.265 184.402 271.266 179.702C276.267 174.611 276.267 166.777 271.266 162.077Z" fill="#F3705A"/>
</g>
<defs>
<clipPath id="clip0_35_661">
<rect width="200.032" height="188" fill="white" transform="translate(74.9844 76.6938)"/>
</clipPath>
</defs>
</svg>
