<svg width="484" height="190" viewBox="0 0 484 190" fill="none" xmlns="http://www.w3.org/2000/svg">
<g clip-path="url(#clip0_35_642)">
<rect y="48.3022" width="471.56" height="142.09" rx="14.209" transform="rotate(-5.79439 0 48.3022)" fill="#0074A5"/>
<rect x="16.2803" y="76.7866" width="311.709" height="39.4977" rx="10.6567" transform="rotate(-5.79439 16.2803 76.7866)" fill="#ECECEC"/>
<path d="M34.4547 99.8185C37.5454 99.5048 39.7967 96.745 39.4831 93.6543C39.1694 90.5636 36.4096 88.3123 33.3189 88.626C30.2282 88.9396 27.9769 91.6994 28.2906 94.7901C28.6042 97.8808 31.364 100.132 34.4547 99.8185Z" stroke="#333333" stroke-width="1.33209" stroke-linecap="round" stroke-linejoin="round"/>
<path d="M39.4289 99.7465C39.8594 100.708 40.6219 100.731 41.1118 99.8019C41.5596 98.9523 41.1451 98.3348 40.1875 98.432C39.4781 98.4977 39.1363 99.0915 39.4289 99.7465Z" stroke="#333333" stroke-width="1.33209" stroke-linecap="round" stroke-linejoin="round"/>
<path d="M53.8655 97.9609C53.5899 97.9889 53.365 97.9367 53.1909 97.8044C53.0274 97.6711 52.9311 97.4612 52.9021 97.175L51.9322 87.617C51.9031 87.3308 51.9553 87.1059 52.0887 86.9424C52.2316 86.7672 52.4461 86.6651 52.7324 86.6361L58.394 86.0615C58.6273 86.0379 58.8028 86.079 58.9207 86.1848C59.0481 86.279 59.1225 86.4321 59.144 86.6442C59.1666 86.8668 59.1255 87.0424 59.0207 87.1708C58.9265 87.2982 58.7628 87.3737 58.5296 87.3974L53.6313 87.8945L53.9944 91.4727L58.5746 91.008C58.7867 90.9864 58.9569 91.0281 59.0854 91.1329C59.2234 91.226 59.3031 91.3786 59.3246 91.5906C59.3472 91.8133 59.3008 91.9893 59.1854 92.1189C59.0807 92.2473 58.9222 92.3223 58.7102 92.3438L54.13 92.8086L54.5561 97.0071C54.6152 97.5903 54.3851 97.9082 53.8655 97.9609ZM62.7828 97.056C62.5177 97.0829 62.3034 97.0297 62.1399 96.8963C61.9871 96.7619 61.8972 96.5621 61.8703 96.297L60.881 86.5482C60.853 86.2726 60.9009 86.0588 61.0248 85.907C61.1582 85.7435 61.3574 85.6483 61.6224 85.6214C61.8875 85.5945 62.0965 85.6483 62.2493 85.7828C62.4118 85.9055 62.507 86.1047 62.5349 86.3804L63.5242 96.1292C63.5511 96.3943 63.5032 96.608 63.3804 96.7704C63.2576 96.9328 63.0584 97.028 62.7828 97.056ZM67.1495 96.6129C66.9057 96.6376 66.7078 96.5881 66.556 96.4642C66.4042 96.3404 66.3154 96.1512 66.2895 95.8968L65.2938 86.0844C65.2669 85.8193 65.3101 85.6114 65.4233 85.4607C65.5461 85.2983 65.7188 85.2058 65.9414 85.1832C66.1323 85.1638 66.2792 85.1864 66.3821 85.2509C66.4946 85.3038 66.6289 85.4133 66.785 85.5796L74.2136 93.5502L73.816 93.5906L72.9703 85.2572C72.9456 85.0133 72.9898 84.816 73.1031 84.6653C73.2269 84.5135 73.4108 84.4252 73.6546 84.4004C73.9091 84.3746 74.1069 84.4242 74.2481 84.5491C74.3893 84.674 74.4723 84.8584 74.497 85.1023L75.4992 94.9783C75.524 95.2221 75.4797 95.4194 75.3665 95.5702C75.2639 95.7198 75.1118 95.8049 74.9104 95.8253C74.7195 95.8447 74.5567 95.8237 74.422 95.7624C74.2978 95.7 74.1577 95.5857 74.0016 95.4195L66.6065 87.4615L66.9722 87.4244L67.8163 95.7419C67.8421 95.9963 67.7984 96.1989 67.6851 96.3497C67.5719 96.5004 67.3934 96.5881 67.1495 96.6129ZM79.2274 95.2748C78.9412 95.3038 78.711 95.2522 78.5369 95.1199C78.3723 94.9759 78.2755 94.7608 78.2465 94.4746L77.2894 85.0438C77.2604 84.7576 77.3126 84.5327 77.4459 84.3692C77.5888 84.194 77.8034 84.0919 78.0897 84.0629L81.159 83.7514C83.0038 83.5642 84.4735 83.9024 85.568 84.7661C86.672 85.6181 87.3161 86.9506 87.5 88.7636C87.5915 89.6648 87.5455 90.4781 87.362 91.2037C87.1786 91.9293 86.8619 92.5559 86.412 93.0836C85.9717 93.5996 85.4092 94.0208 84.7247 94.3474C84.0391 94.6633 83.2298 94.8686 82.2968 94.9633L79.2274 95.2748ZM79.8504 93.8137L82.061 93.5894C82.7607 93.5184 83.3564 93.3722 83.8481 93.151C84.3493 92.918 84.7571 92.6088 85.0715 92.2235C85.3859 91.8381 85.601 91.3717 85.7168 90.8244C85.8327 90.2771 85.8546 89.6482 85.7825 88.9379C85.6394 87.5278 85.1824 86.5083 84.4117 85.8796C83.6515 85.2498 82.5823 85.0048 81.204 85.1447L78.9934 85.369L79.8504 93.8137ZM99.8313 93.3286C98.6968 93.4437 97.7031 93.3089 96.8499 92.9241C95.9968 92.5394 95.3094 91.9397 94.7875 91.125C94.2752 90.2987 93.9593 89.2971 93.8399 88.1202C93.7506 87.2402 93.7924 86.438 93.9652 85.7135C94.137 84.9784 94.4255 84.3386 94.8309 83.794C95.2457 83.2377 95.7737 82.7932 96.4147 82.4604C97.0664 82.1264 97.8163 81.9164 98.6645 81.8304C99.29 81.7669 99.8977 81.7909 100.487 81.9025C101.088 82.0129 101.616 82.2057 102.072 82.4807C102.265 82.579 102.396 82.7103 102.466 82.8746C102.546 83.0272 102.572 83.1798 102.545 83.3326C102.528 83.4842 102.472 83.6185 102.376 83.7352C102.28 83.8414 102.148 83.9084 101.979 83.9362C101.821 83.963 101.64 83.9224 101.437 83.8145C101.06 83.585 100.653 83.4281 100.216 83.3439C99.7789 83.2597 99.3272 83.2413 98.8607 83.2886C98.0549 83.3704 97.3936 83.6089 96.8767 84.0041C96.3587 84.3887 95.9889 84.9136 95.7672 85.5788C95.5454 86.244 95.4809 87.0325 95.5734 87.9443C95.6659 88.8561 95.8881 89.6208 96.24 90.2385C96.5908 90.8456 97.0591 91.2908 97.6449 91.5742C98.2295 91.8469 98.9247 91.9424 99.7305 91.8606C100.197 91.8133 100.636 91.7045 101.047 91.5342C101.468 91.3523 101.855 91.1094 102.21 90.8056C102.389 90.6696 102.554 90.5994 102.703 90.5949C102.863 90.5894 103.001 90.6289 103.117 90.7136C103.232 90.7983 103.314 90.9132 103.361 91.0584C103.417 91.1919 103.427 91.3409 103.39 91.5053C103.363 91.6581 103.275 91.7955 103.126 91.9177C102.727 92.3116 102.24 92.6289 101.665 92.8694C101.089 93.1099 100.478 93.2629 99.8313 93.3286ZM106.536 92.6161C106.271 92.643 106.056 92.5897 105.893 92.4564C105.74 92.3219 105.65 92.1222 105.623 91.8571L104.634 82.1083C104.606 81.8326 104.654 81.6189 104.778 81.4671C104.911 81.3036 105.11 81.2084 105.375 81.1815C105.641 81.1546 105.85 81.2084 106.002 81.3428C106.165 81.4656 106.26 81.6648 106.288 81.9405L106.704 86.0435L112.986 85.4061L112.57 81.303C112.542 81.0273 112.59 80.8136 112.714 80.6618C112.847 80.4983 113.046 80.4031 113.311 80.3762C113.576 80.3493 113.785 80.4031 113.938 80.5375C114.09 80.6614 114.18 80.8611 114.208 81.1368L115.197 90.8856C115.224 91.1506 115.176 91.3644 115.053 91.5268C114.931 91.6892 114.737 91.7839 114.472 91.8108C114.207 91.8377 113.992 91.7844 113.829 91.651C113.676 91.5166 113.586 91.3168 113.559 91.0518L113.127 86.7897L106.845 87.4271L107.277 91.6893C107.304 91.9543 107.256 92.1681 107.133 92.3305C107.011 92.4929 106.811 92.5881 106.536 92.6161ZM118.886 91.3627C118.621 91.3896 118.407 91.3364 118.244 91.203C118.091 91.0686 118.001 90.8688 117.974 90.6038L116.985 80.855C116.957 80.5793 117.005 80.3656 117.128 80.2138C117.262 80.0503 117.461 79.9551 117.726 79.9282C117.991 79.9013 118.2 79.9551 118.353 80.0895C118.515 80.2123 118.611 80.4115 118.639 80.6871L119.628 90.4359C119.655 90.701 119.607 90.9147 119.484 91.0772C119.361 91.2396 119.162 91.3348 118.886 91.3627ZM123.305 90.8018C123.04 90.8287 122.826 90.7755 122.663 90.6421C122.499 90.5088 122.404 90.3096 122.377 90.0445L121.404 80.4547C121.376 80.1791 121.424 79.9653 121.548 79.8135C121.681 79.65 121.88 79.5548 122.145 79.5279C122.41 79.501 122.619 79.5548 122.772 79.6893C122.935 79.812 123.03 80.0112 123.058 80.2869L123.973 89.3041L128.903 88.8038C129.136 88.7802 129.323 88.8255 129.463 88.9398C129.602 89.0435 129.683 89.2067 129.706 89.4294C129.728 89.652 129.682 89.8334 129.568 89.9735C129.454 90.1137 129.28 90.1956 129.047 90.2192L123.305 90.8018ZM132.287 89.8904C132.001 89.9195 131.771 89.8678 131.597 89.7356C131.432 89.5916 131.335 89.3765 131.306 89.0902L130.349 79.6595C130.32 79.3732 130.372 79.1483 130.506 78.9848C130.648 78.8097 130.863 78.7076 131.149 78.6785L134.219 78.367C136.063 78.1798 137.533 78.5181 138.628 79.3817C139.732 80.2337 140.376 81.5662 140.56 83.3792C140.651 84.2804 140.605 85.0938 140.422 85.8194C140.238 86.5449 139.922 87.1716 139.472 87.6992C139.031 88.2152 138.469 88.6365 137.784 88.963C137.099 89.279 136.289 89.4843 135.356 89.5789L132.287 89.8904ZM132.91 88.4294L135.121 88.205C135.82 88.134 136.416 87.9879 136.908 87.7666C137.409 87.5336 137.817 87.2245 138.131 86.8391C138.446 86.4537 138.661 85.9874 138.776 85.44C138.892 84.8927 138.914 84.2639 138.842 83.5535C138.699 82.1434 138.242 81.124 137.471 80.4952C136.711 79.8654 135.642 79.6204 134.264 79.7603L132.053 79.9846L132.91 88.4294ZM152.891 87.9442C151.757 88.0593 150.763 87.9245 149.91 87.5398C149.056 87.155 148.369 86.5553 147.847 85.7407C147.335 84.9143 147.019 83.9127 146.9 82.7359C146.81 81.8559 146.852 81.0536 147.025 80.3291C147.197 79.594 147.485 78.9542 147.891 78.4096C148.305 77.8534 148.833 77.4088 149.474 77.076C150.126 76.7421 150.876 76.5321 151.724 76.446C152.35 76.3825 152.957 76.4066 153.547 76.5181C154.147 76.6286 154.676 76.8213 155.132 77.0964C155.324 77.1947 155.455 77.326 155.526 77.4902C155.605 77.6428 155.632 77.7955 155.604 77.9482C155.587 78.0999 155.531 78.2341 155.436 78.3509C155.34 78.4571 155.207 78.5241 155.039 78.5519C154.881 78.5786 154.7 78.538 154.496 78.4302C154.119 78.2006 153.713 78.0438 153.276 77.9596C152.839 77.8754 152.387 77.857 151.92 77.9043C151.115 77.9861 150.453 78.2246 149.936 78.6198C149.418 79.0044 149.049 79.5293 148.827 80.1945C148.605 80.8597 148.541 81.6482 148.633 82.56C148.726 83.4717 148.948 84.2365 149.3 84.8542C149.65 85.4613 150.119 85.9065 150.705 86.1898C151.289 86.4625 151.984 86.558 152.79 86.4762C153.257 86.4289 153.696 86.3201 154.107 86.1498C154.527 85.9679 154.915 85.725 155.27 85.4212C155.449 85.2852 155.613 85.215 155.763 85.2106C155.923 85.205 156.061 85.2446 156.176 85.3292C156.292 85.4139 156.373 85.5288 156.42 85.674C156.477 85.8076 156.486 85.9565 156.45 86.121C156.422 86.2737 156.334 86.4111 156.186 86.5333C155.787 86.9273 155.3 87.2445 154.724 87.485C154.149 87.7255 153.538 87.8786 152.891 87.9442ZM158.456 87.3473C158.244 87.3688 158.07 87.3383 157.933 87.2558C157.796 87.1733 157.709 87.0536 157.672 86.8967C157.634 86.7398 157.648 86.5564 157.712 86.3463L161.041 76.2397C161.121 75.9745 161.235 75.7808 161.383 75.6586C161.542 75.5354 161.723 75.4635 161.924 75.4431C162.115 75.4237 162.295 75.459 162.465 75.5489C162.645 75.6377 162.801 75.8039 162.933 76.0476L168.224 85.2796C168.34 85.4713 168.396 85.6531 168.392 85.8249C168.387 85.9861 168.331 86.1203 168.224 86.2276C168.116 86.3242 167.956 86.3833 167.744 86.4048C167.511 86.4285 167.319 86.389 167.17 86.2864C167.02 86.1837 166.88 86.0159 166.749 85.7828L165.374 83.3194L166.167 83.6888L159.392 84.3763L160.078 83.8568L159.243 86.5445C159.162 86.8097 159.065 87.0071 158.949 87.1366C158.833 87.2555 158.668 87.3258 158.456 87.3473ZM162.089 77.3865L160.265 83.3237L159.829 82.9823L165.443 82.4126L165.116 82.8314L162.121 77.3833L162.089 77.3865ZM171.216 86.0525C170.951 86.0794 170.737 86.0261 170.573 85.8928C170.42 85.7583 170.331 85.5586 170.304 85.2935L169.326 75.656C169.298 75.3804 169.351 75.1661 169.485 75.0132C169.619 74.8497 169.818 74.7545 170.083 74.7276L173.884 74.3419C175.093 74.2193 176.055 74.4108 176.77 74.9167C177.486 75.4225 177.897 76.2002 178.003 77.2498C178.072 77.9284 177.983 78.5266 177.735 79.0444C177.488 79.5622 177.091 79.9774 176.544 80.29C176.008 80.6014 175.342 80.7975 174.547 80.8782L174.668 80.641L175.081 80.5991C175.505 80.556 175.882 80.6249 176.211 80.8058C176.55 80.9856 176.871 81.2958 177.173 81.7365L178.799 84.1422C178.924 84.3223 178.991 84.503 178.998 84.6843C179.016 84.854 178.966 84.9982 178.85 85.1172C178.744 85.235 178.579 85.3053 178.357 85.3278C178.124 85.3515 177.928 85.3232 177.77 85.2428C177.621 85.1508 177.478 85.01 177.341 84.8203L175.358 81.9045C175.094 81.5136 174.811 81.2638 174.511 81.155C174.21 81.0356 173.826 80.9996 173.359 81.047L171.562 81.2293L171.958 85.1257C171.985 85.3907 171.937 85.6045 171.814 85.7669C171.691 85.9293 171.492 86.0245 171.216 86.0525ZM171.436 79.9889L174.156 79.7129C174.962 79.6311 175.554 79.3996 175.933 79.0184C176.312 78.6372 176.468 78.1126 176.4 77.4446C176.333 76.7873 176.076 76.31 175.628 76.0126C175.18 75.7153 174.553 75.6076 173.748 75.6893L171.028 75.9653L171.436 79.9889ZM182.19 84.8264C181.904 84.8554 181.674 84.8038 181.5 84.6715C181.335 84.5275 181.238 84.3124 181.209 84.0262L180.252 74.5954C180.223 74.3092 180.275 74.0843 180.409 73.9208C180.552 73.7456 180.766 73.6435 181.053 73.6145L186.857 73.0254C187.08 73.0028 187.255 73.0439 187.384 73.1487C187.511 73.2429 187.586 73.396 187.607 73.608C187.63 73.8307 187.589 74.0062 187.484 74.1347C187.379 74.2632 187.215 74.3387 186.993 74.3613L181.888 74.8793L182.245 78.394L187 77.9115C187.233 77.8878 187.408 77.9289 187.526 78.0347C187.655 78.1395 187.73 78.298 187.751 78.51C187.774 78.7326 187.733 78.9082 187.628 79.0367C187.533 79.1534 187.368 79.2237 187.135 79.2473L182.38 79.7299L182.754 83.4195L187.859 82.9014C188.082 82.8788 188.258 82.9199 188.386 83.0247C188.515 83.1295 188.59 83.2879 188.611 83.5C188.634 83.7226 188.593 83.8982 188.488 84.0266C188.382 84.1445 188.218 84.2147 187.995 84.2373L182.19 84.8264Z" fill="#333333"/>
<path d="M41.7803 143.356L449.085 102.024" stroke="#002E41" stroke-width="8.88061" stroke-linecap="round"/>
<path d="M41.7803 143.356L244.991 122.735" stroke="#FFF8F2" stroke-width="8.88061" stroke-linecap="round"/>
<circle cx="34.7119" cy="144.073" r="11.5448" transform="rotate(-5.79439 34.7119 144.073)" fill="#FFF8F2"/>
<circle cx="454.386" cy="101.486" r="11.5448" transform="rotate(-5.79439 454.386 101.486)" fill="#FFF8F2"/>
<path d="M259.127 121.3C259.919 129.107 254.233 136.079 246.425 136.871C238.618 137.663 231.647 131.976 230.854 124.169C230.062 116.362 235.749 109.39 243.556 108.598C251.364 107.806 258.335 113.493 259.127 121.3ZM240.892 123.151C241.121 125.415 243.143 127.064 245.407 126.834C247.671 126.604 249.32 124.583 249.09 122.319C248.86 120.055 246.839 118.406 244.575 118.635C242.311 118.865 240.662 120.887 240.892 123.151Z" fill="#FFF8F2"/>
<circle cx="244.991" cy="122.734" r="4.44031" transform="rotate(-5.79439 244.991 122.734)" fill="#002E41"/>
<path d="M34.0846 137.889C31.6501 138.136 29.8708 140.345 30.121 142.811C30.3499 145.066 34.3274 149.536 34.7809 150.038C35.0792 150.38 35.6239 150.318 35.8432 149.931C36.1866 149.348 39.1851 144.17 38.9563 141.915C38.706 139.449 36.5192 137.642 34.0846 137.889ZM34.7561 144.506C33.5875 144.625 32.5429 143.761 32.4228 142.578C32.3027 141.394 33.1526 140.339 34.3212 140.22C35.4898 140.101 36.5344 140.965 36.6545 142.148C36.7746 143.332 35.9247 144.387 34.7561 144.506Z" fill="#002E41"/>
<path d="M453.758 95.3012C451.324 95.5483 449.545 97.758 449.795 100.224C450.024 102.479 454.001 106.949 454.455 107.451C454.753 107.793 455.298 107.73 455.517 107.343C455.86 106.76 458.859 101.582 458.63 99.3272C458.38 96.8614 456.193 95.0542 453.758 95.3012ZM454.43 101.919C453.261 102.037 452.217 101.174 452.097 99.9902C451.977 98.8066 452.826 97.7511 453.995 97.6325C455.164 97.5139 456.208 98.3772 456.328 99.5608C456.448 100.744 455.599 101.8 454.43 101.919Z" fill="#002E41"/>
</g>
<defs>
<clipPath id="clip0_35_642">
<rect y="48.3022" width="471.56" height="142.09" rx="14.209" transform="rotate(-5.79439 0 48.3022)" fill="white"/>
</clipPath>
</defs>
</svg>
