<svg width="50" height="50" viewBox="0 0 50 50" fill="none" xmlns="http://www.w3.org/2000/svg">
<path d="M45.3132 21.6251L41.4695 38.6095C41.3932 38.9648 41.1955 39.2825 40.9103 39.5078C40.6251 39.7331 40.2703 39.8519 39.907 39.8439H9.96947C9.60612 39.8519 9.25131 39.7331 8.96612 39.5078C8.68093 39.2825 8.48321 38.9648 8.40697 38.6095L4.68822 21.6251C4.62564 21.3381 4.64522 21.0393 4.74471 20.7629C4.8442 20.4866 5.01958 20.2439 5.25072 20.0626C5.4825 19.8807 5.76099 19.7681 6.05404 19.7377C6.3471 19.7073 6.64278 19.7603 6.90697 19.8907L16.032 24.3126L23.5945 10.9376C23.7308 10.6971 23.9284 10.4971 24.1672 10.358C24.406 10.2188 24.6775 10.1455 24.9538 10.1455C25.2302 10.1455 25.5017 10.2188 25.7405 10.358C25.9793 10.4971 26.1769 10.6971 26.3132 10.9376L33.8757 24.3282L43.0632 19.8751C43.3293 19.7341 43.6305 19.6729 43.9305 19.699C44.2305 19.7251 44.5166 19.8374 44.7543 20.0223C44.992 20.2072 45.1713 20.4568 45.2704 20.7412C45.3696 21.0255 45.3844 21.3325 45.3132 21.6251Z" fill="#FFA726"/>
</svg>
