<svg width="237" height="238" viewBox="0 0 237 238" fill="none" xmlns="http://www.w3.org/2000/svg">
<g clip-path="url(#clip0_229_5705)">
<path d="M118.5 131.822C125.728 131.822 131.535 125.956 131.535 118.787C131.535 111.617 125.729 105.751 118.5 105.751C111.331 105.751 105.465 111.617 105.465 118.787C105.465 125.956 111.331 131.822 118.5 131.822Z" fill="#0074A5"/>
<path d="M118.5 0.287109C53.0289 0.287109 0 53.316 0 118.787C0 184.199 53.0289 237.287 118.5 237.287C183.971 237.287 236.999 184.199 236.999 118.787C237 53.316 183.971 0.287109 118.5 0.287109ZM144.451 144.738L47.3998 189.887L92.5482 92.8354L189.6 47.6869L144.451 144.738Z" fill="#0074A5"/>
</g>
<defs>
<clipPath id="clip0_229_5705">
<rect width="237" height="237" fill="white" transform="translate(0 0.287109)"/>
</clipPath>
</defs>
</svg>
