<svg width="58" height="58" viewBox="0 0 58 58" fill="none" xmlns="http://www.w3.org/2000/svg">
<path d="M35.7975 42.3283C35.7047 42.3283 35.6003 42.3167 35.5075 42.2819C32.7467 41.2843 30.3223 40.1707 28.2111 38.9759C25.4387 40.2055 22.9447 40.8667 21.0191 41.2263C17.2027 41.9223 14.7087 41.6323 14.6043 41.6207C14.1287 41.5627 13.7923 41.1219 13.8503 40.6463C13.9083 40.1707 14.3491 39.8343 14.8247 39.8923C14.8479 39.8923 17.2143 40.1707 20.7871 39.5095C22.3299 39.2195 24.2439 38.7207 26.3783 37.8739C18.7223 32.9323 15.9035 26.9467 16.0195 22.5735C16.1123 19.3139 17.8059 16.7851 20.4507 15.9963C22.2951 15.4395 24.0003 15.6135 25.5315 16.5067C27.6659 17.7479 28.9651 20.1607 29.6727 21.9355C30.0671 21.2047 30.6007 20.3579 31.2735 19.5459C33.6631 16.6459 36.6443 15.5439 39.9155 16.3675C42.1543 16.9359 43.6159 18.3743 44.0335 20.4391C44.4279 22.3995 43.8595 24.7427 42.3979 27.2367C40.8783 29.8119 38.4307 32.4103 35.3335 34.7651C33.5703 36.1107 31.8187 37.1895 30.1483 38.0595C31.9694 39.0223 33.9647 39.8923 36.0991 40.6579C36.5515 40.8203 36.7835 41.3191 36.6211 41.7715C36.4935 42.1079 36.1571 42.3283 35.7975 42.3283ZM22.5039 17.3999C22.0051 17.3999 21.4947 17.4811 20.9495 17.6435C19.0123 18.2235 17.8175 20.0795 17.7479 22.6083C17.6667 25.4967 19.0587 28.6983 21.6571 31.6447C23.3855 33.6051 25.6359 35.4147 28.3155 37.0155C30.2063 36.1107 32.2363 34.9275 34.2779 33.3615C37.2011 31.1343 39.4863 28.7099 40.8899 26.3319C42.1195 24.2555 42.6299 22.2835 42.3283 20.7755C42.0382 19.3719 41.0871 18.4555 39.4862 18.0495C36.8995 17.3883 34.6026 18.2583 32.6423 20.6131C31.0995 22.4691 30.3571 24.5919 30.3571 24.6151C30.2295 24.9863 29.8699 25.2183 29.4871 25.2067C29.0927 25.1835 28.7679 24.9051 28.6867 24.5339C28.6751 24.4875 27.5615 19.7199 24.6499 18.0147C23.9771 17.5971 23.2579 17.3999 22.5039 17.3999Z" fill="#F06292" stroke="#F06292" stroke-miterlimit="10"/>
</svg>
