<svg width="237" height="238" viewBox="0 0 237 238" fill="none" xmlns="http://www.w3.org/2000/svg">
<g clip-path="url(#clip0_229_5748)">
<path d="M220.731 142.463L206.874 128.607L187.235 148.246L201.093 162.102C211.92 172.931 211.92 190.553 201.093 201.381C190.266 212.208 172.643 212.208 161.814 201.381L89.0408 128.607L69.4023 148.246L142.176 221.019C163.866 242.71 199.041 242.71 220.731 221.019C242.422 199.328 242.422 164.154 220.731 142.463Z" fill="#FFC716"/>
<path d="M75.1854 201.381C64.3563 212.208 46.7339 212.208 35.9066 201.381C25.0793 190.553 25.0793 172.931 35.9066 162.102L108.68 89.3284L89.0414 69.6899L16.2681 142.463C-5.42269 164.154 -5.42269 199.328 16.2681 221.019C37.9588 242.71 73.1331 242.71 94.8239 221.019L108.68 207.161L89.0414 187.523L75.1854 201.381Z" fill="#FFC716"/>
<path d="M161.815 36.1937C172.644 25.3664 190.266 25.3664 201.094 36.1937C211.921 47.021 211.921 64.6434 201.094 75.4725L128.32 148.246L147.959 167.884L220.732 95.111C242.423 73.4202 242.423 38.2459 220.732 16.5552C199.041 -5.13558 163.867 -5.13558 142.176 16.5552L128.32 30.413L147.959 50.0515L161.815 36.1937Z" fill="#FFC716"/>
<path d="M30.1259 108.967L49.7644 89.3285L35.9066 75.4725C25.0793 64.6434 25.0793 47.021 35.9066 36.1937C46.7339 25.3664 64.3563 25.3664 75.1854 36.1937L150.834 111.842L170.472 92.2034L94.8239 16.5552C73.1331 -5.13558 37.9588 -5.13558 16.2681 16.5552C-5.42269 38.2459 -5.42269 73.4202 16.2681 95.111L30.1259 108.967Z" fill="#FFC716"/>
</g>
<defs>
<clipPath id="clip0_229_5748">
<rect width="237" height="237" fill="white" transform="translate(0 0.287109)"/>
</clipPath>
</defs>
</svg>
