<svg width="237" height="238" viewBox="0 0 237 238" fill="none" xmlns="http://www.w3.org/2000/svg">
<path d="M99.3196 140.955C104.775 136.314 109.908 128.83 111.233 124.03C105.682 119.628 93.9709 109.628 83.6465 96.1558V152.775C86.2953 150.556 89.0501 148.589 91.7472 146.669C94.4435 144.75 96.9905 142.937 99.3196 140.955Z" fill="#EAD6ED"/>
<path d="M158.652 47.5098C158.652 25.3689 140.64 7.35645 118.499 7.35645C96.3586 7.35645 78.3457 25.3694 78.3457 47.5098C78.3457 76.329 107.537 102.973 118.494 111.957C129.443 102.958 158.652 76.2528 158.652 47.5098ZM97.5873 48.8998C97.5873 37.369 106.968 27.988 118.499 27.988C130.03 27.988 139.411 37.369 139.411 48.8998C139.411 60.4305 130.03 69.8115 118.499 69.8115C106.968 69.8115 97.5873 60.431 97.5873 48.8998Z" fill="#EAD6ED"/>
<path d="M101.562 190.118C119.085 191.835 136.941 187.627 151.848 178.259C152.354 177.941 152.853 177.61 153.353 177.281V96.1562C142.76 109.978 130.703 120.149 125.342 124.365C123.902 135.936 112.938 147.673 108.354 151.574C105.566 153.946 102.651 156.02 99.8324 158.027C96.0037 160.753 92.3873 163.328 89.4379 166.375C85.5297 170.412 82.4203 176.63 84.2833 181.421C86.9094 188.175 98.1729 189.785 101.562 190.118Z" fill="#EAD6ED"/>
<path d="M118.5 55.8704C122.35 55.8704 125.47 52.7495 125.47 48.8998C125.47 45.05 122.35 41.9292 118.5 41.9292C114.65 41.9292 111.529 45.05 111.529 48.8998C111.529 52.7495 114.65 55.8704 118.5 55.8704Z" fill="#EAD6ED"/>
<path d="M167.295 72.5557V166.697C167.751 166.323 168.207 165.95 168.667 165.572C173.825 161.337 179.157 156.957 184.957 153.117C200.68 142.703 216.795 139.32 230.332 143.59L230.586 143.676C230.874 143.779 233.542 144.769 237.001 147V34.3555L171.566 58.3473C170.657 63.2342 169.182 67.9853 167.295 72.5557Z" fill="#EAD6ED"/>
<path d="M225.949 156.826C213.258 152.936 199.655 160.103 192.655 164.739C187.452 168.185 182.625 172.149 177.514 176.345C174.203 179.065 170.822 181.834 167.295 184.486V229.823L237.001 202.439V166.199C232.972 159.839 226.918 157.214 225.949 156.826Z" fill="#EAD6ED"/>
<path d="M153.352 193.479C139.803 200.656 124.574 204.435 109.252 204.435C106.234 204.435 103.214 204.289 100.201 203.992C93.7752 203.362 88.2066 201.833 83.6465 199.502V230.218H153.352V193.479Z" fill="#EAD6ED"/>
<path d="M7.27032 116.689C13.7618 116.679 19.4749 111.2 22.3017 107.934C24.5964 105.284 26.6537 102.35 28.8317 99.2442C31.2663 95.7728 33.7837 92.1834 36.7801 88.8143C45.1513 79.4026 56.4734 72.8108 68.717 70.0421C67.2996 66.2515 66.1783 62.3447 65.4343 58.3473L0 34.355V116.69H7.27032V116.689Z" fill="#EAD6ED"/>
<path d="M69.7059 84.1577C61.0819 86.5254 53.1642 91.3704 47.1965 98.0794C44.7349 100.847 42.554 103.956 40.2454 107.248C37.9623 110.504 35.6011 113.871 32.8412 117.058C25.2777 125.795 16.2001 130.615 7.28148 130.63H0V202.438L69.7059 229.822V84.1577Z" fill="#EAD6ED"/>
</svg>
