<svg width="33" height="33" viewBox="0 0 33 33" fill="none" xmlns="http://www.w3.org/2000/svg">
<path d="M30.7669 29.4805C30.7659 29.8338 30.6251 30.1723 30.3753 30.4221C30.1254 30.672 29.7869 30.8128 29.4336 30.8138H1.87804C1.76027 30.8134 1.64743 30.7665 1.56416 30.6832C1.48088 30.6 1.43395 30.4871 1.43359 30.3694V2.8138C1.43359 2.46018 1.57407 2.12104 1.82412 1.87099C2.07417 1.62094 2.41331 1.48047 2.76693 1.48047C3.12055 1.48047 3.45969 1.62094 3.70974 1.87099C3.95978 2.12104 4.10026 2.46018 4.10026 2.8138V28.1471H29.4336C29.7869 28.1482 30.1254 28.289 30.3753 28.5388C30.6251 28.7886 30.7659 29.1272 30.7669 29.4805Z" fill="#26A69A"/>
<path d="M19.2107 20.5916H16.5441C16.2986 20.5916 16.0996 20.7905 16.0996 21.036V26.8138C16.0996 27.0592 16.2986 27.2582 16.5441 27.2582H19.2107C19.4562 27.2582 19.6552 27.0592 19.6552 26.8138V21.036C19.6552 20.7905 19.4562 20.5916 19.2107 20.5916Z" fill="#26A69A"/>
<path d="M12.0994 22.3694H9.43273C9.18727 22.3694 8.98828 22.5684 8.98828 22.8138V26.8138C8.98828 27.0593 9.18727 27.2583 9.43273 27.2583H12.0994C12.3449 27.2583 12.5438 27.0593 12.5438 26.8138V22.8138C12.5438 22.5684 12.3449 22.3694 12.0994 22.3694Z" fill="#26A69A"/>
<path d="M26.322 18.3694H23.6554C23.4099 18.3694 23.2109 18.5684 23.2109 18.8138V26.8138C23.2109 27.0593 23.4099 27.2583 23.6554 27.2583H26.322C26.5675 27.2583 26.7665 27.0593 26.7665 26.8138V18.8138C26.7665 18.5684 26.5675 18.3694 26.322 18.3694Z" fill="#26A69A"/>
<path d="M26.6166 10.2582C26.5766 10.2982 26.2877 10.5516 25.8122 10.9116C24.4433 11.9427 21.5322 13.836 18.5322 13.9205C19.5556 13.8667 20.5193 13.4223 21.2247 12.6789C21.9301 11.9355 22.3234 10.9497 22.3234 9.92491C22.3234 8.90009 21.9301 7.91434 21.2247 7.17093C20.5193 6.42751 19.5556 5.98311 18.5322 5.92936C21.5322 6.0138 24.4433 7.90714 25.8122 8.93825C26.2877 9.29825 26.5766 9.55155 26.6166 9.59158C26.6645 9.63286 26.7028 9.68406 26.7288 9.74162C26.7549 9.79917 26.7682 9.86172 26.7677 9.92491C26.7677 7.68531 25.878 5.53743 24.2944 3.95379C22.7108 2.37015 20.5629 1.48047 18.3233 1.48047C16.0837 1.48047 13.9358 2.37015 12.3522 3.95379C10.7685 5.53743 9.87883 7.68531 9.87883 9.92491C9.87834 9.86172 9.89161 9.79917 9.9177 9.74162C9.94379 9.68406 9.98209 9.63286 10.0299 9.59158C10.0699 9.55158 10.3588 9.29825 10.8344 8.93825C12.2033 7.90714 15.1144 6.0138 18.1144 5.92936C17.091 5.98311 16.1272 6.42751 15.4218 7.17093C14.7164 7.91434 14.3232 8.90009 14.3232 9.92491C14.3232 10.9497 14.7164 11.9355 15.4218 12.6789C16.1272 13.4223 17.091 13.8667 18.1144 13.9205C15.1144 13.836 12.2033 11.9427 10.8344 10.9116C10.3588 10.5516 10.0699 10.2983 10.0299 10.2582C9.98209 10.217 9.94379 10.1658 9.9177 10.1082C9.89161 10.0507 9.87834 9.98811 9.87883 9.92491C9.87755 12.0101 10.6504 14.0215 12.0477 15.5694L11.1677 16.4494C10.8435 16.2643 10.4676 16.1907 10.0976 16.2396C9.72754 16.2886 9.38374 16.4575 9.11883 16.7205L6.00772 19.8316C5.69041 20.1515 5.51277 20.584 5.51368 21.0346C5.51459 21.4852 5.69397 21.917 6.01257 22.2356C6.33117 22.5542 6.76302 22.7336 7.21359 22.7345C7.66415 22.7354 8.09673 22.5578 8.41661 22.2405L11.5277 19.1294C11.7907 18.8644 11.9596 18.5206 12.0085 18.1506C12.0575 17.7806 11.9838 17.4047 11.7988 17.0805L12.6788 16.2005C13.8916 17.2928 15.3951 18.0101 17.0071 18.2654C18.6192 18.5208 20.2708 18.3032 21.7617 17.6391C23.2527 16.975 24.5191 15.8928 25.4076 14.5237C26.2961 13.1545 26.7685 11.5571 26.7677 9.92491C26.7682 9.98811 26.7549 10.0507 26.7288 10.1082C26.7028 10.1658 26.6645 10.217 26.6166 10.2582ZM17.8788 3.25825C17.8792 3.14048 17.9261 3.02764 18.0094 2.94437C18.0927 2.86109 18.2055 2.81415 18.3233 2.8138C20.1128 2.81423 21.8357 3.49229 23.1455 4.71158C23.1885 4.75093 23.2233 4.79837 23.2479 4.85119C23.2725 4.90401 23.2864 4.96116 23.2889 5.01938C23.2914 5.07759 23.2823 5.13573 23.2623 5.19045C23.2423 5.24516 23.2116 5.29539 23.1722 5.33825C23.1298 5.38299 23.0788 5.41866 23.0223 5.44311C22.9658 5.46756 22.9049 5.48027 22.8433 5.48047C22.7323 5.48024 22.6256 5.43726 22.5455 5.36047C21.3966 4.29664 19.8891 3.70474 18.3233 3.70269C18.2055 3.70234 18.0927 3.6554 18.0094 3.57213C17.9261 3.48885 17.8792 3.37601 17.8788 3.25825ZM15.2122 9.92491C15.2122 9.30959 15.3946 8.70809 15.7365 8.19647C16.0783 7.68485 16.5642 7.28609 17.1327 7.05062C17.7012 6.81515 18.3267 6.75354 18.9302 6.87358C19.5337 6.99362 20.0881 7.28993 20.5232 7.72503C20.9583 8.16012 21.2546 8.71447 21.3746 9.31797C21.4946 9.92146 21.433 10.547 21.1976 11.1155C20.9621 11.684 20.5633 12.1699 20.0517 12.5117C19.5401 12.8536 18.9386 13.036 18.3233 13.036C17.9146 13.0363 17.5099 12.9561 17.1324 12.7998C16.7548 12.6436 16.4117 12.4144 16.1227 12.1255C15.8338 11.8365 15.6046 11.4934 15.4484 11.1158C15.2921 10.7382 15.2119 10.3336 15.2122 9.92491Z" fill="#26A69A"/>
</svg>
