<svg width="33" height="33" viewBox="0 0 33 33" fill="none" xmlns="http://www.w3.org/2000/svg">
<path d="M23.0774 20.5846C22.8558 19.0786 22.1017 17.7019 20.9519 16.7043C19.8022 15.7067 18.3329 15.1543 16.8107 15.1472H15.3921C13.8699 15.1543 12.4006 15.7067 11.2509 16.7043C10.1011 17.7019 9.34702 19.0786 9.12539 20.5846L8.44539 25.3392C8.42367 25.4929 8.43802 25.6495 8.48731 25.7967C8.53661 25.9439 8.61948 26.0776 8.72939 26.1872C8.99606 26.4539 10.6321 27.8139 16.1027 27.8139C21.5734 27.8139 23.2054 26.4592 23.4761 26.1872C23.586 26.0776 23.6688 25.9439 23.7181 25.7967C23.7674 25.6495 23.7818 25.4929 23.7601 25.3392L23.0774 20.5846Z" fill="#26A69A"/>
<path d="M10.1801 15.8805C8.89144 17.0684 8.053 18.6652 7.80673 20.4005L7.3134 23.8138C3.3534 23.7871 2.1534 22.3471 1.9534 22.0538C1.87609 21.9472 1.82092 21.8263 1.79115 21.698C1.76138 21.5698 1.75761 21.4369 1.78006 21.3071L2.0734 19.6538C2.22623 18.7897 2.58516 17.9753 3.11976 17.2794C3.65436 16.5836 4.34887 16.027 5.14439 15.6567C5.93992 15.2864 6.813 15.1134 7.68962 15.1524C8.56623 15.1913 9.42052 15.4411 10.1801 15.8805Z" fill="#26A69A"/>
<path d="M30.4195 21.3071C30.442 21.4369 30.4382 21.5698 30.4084 21.698C30.3787 21.8263 30.3235 21.9472 30.2462 22.0538C30.0462 22.3471 28.8462 23.7871 24.8862 23.8138L24.3929 20.4005C24.1466 18.6652 23.3082 17.0684 22.0195 15.8805C22.7791 15.4411 23.6334 15.1913 24.51 15.1524C25.3866 15.1134 26.2597 15.2864 27.0552 15.6567C27.8507 16.027 28.5452 16.5836 29.0798 17.2794C29.6144 17.9753 29.9734 18.7897 30.1262 19.6538L30.4195 21.3071Z" fill="#26A69A"/>
<path d="M10.4056 12.9472C10.07 13.4232 9.62443 13.8112 9.10679 14.0781C8.58914 14.3451 8.01471 14.4831 7.43229 14.4806C6.8513 14.4806 6.27863 14.3425 5.76146 14.0777C5.2443 13.813 4.79745 13.4291 4.45774 12.9578C4.11803 12.4865 3.89518 11.9412 3.80756 11.3668C3.71994 10.7925 3.77006 10.2056 3.95379 9.65438C4.13751 9.10321 4.44958 8.60358 4.86429 8.19667C5.27899 7.78977 5.78445 7.48723 6.33901 7.314C6.89357 7.14077 7.48136 7.1018 8.05394 7.2003C8.62652 7.2988 9.1675 7.53196 9.63229 7.88055C9.49861 8.40335 9.43141 8.94093 9.43229 9.48055C9.43331 10.7034 9.76999 11.9025 10.4056 12.9472Z" fill="#26A69A"/>
<path d="M28.433 10.8139C28.4333 11.2955 28.3387 11.7725 28.1546 12.2175C27.9704 12.6625 27.7004 13.0668 27.3598 13.4074C27.0193 13.7479 26.6149 14.018 26.1699 14.2022C25.7249 14.3863 25.2479 14.4809 24.7663 14.4806C24.1839 14.4831 23.6094 14.3451 23.0918 14.0781C22.5742 13.8112 22.1286 13.4232 21.793 12.9472C22.4286 11.9025 22.7653 10.7034 22.7663 9.48055C22.7672 8.94093 22.7 8.40335 22.5663 7.88055C23.1111 7.47199 23.7588 7.22319 24.437 7.16203C25.1152 7.10088 25.797 7.22979 26.4061 7.53432C27.0151 7.83885 27.5274 8.30696 27.8854 8.8862C28.2433 9.46545 28.433 10.1329 28.433 10.8139Z" fill="#26A69A"/>
<path d="M16.0996 14.4805C18.861 14.4805 21.0996 12.2419 21.0996 9.48047C21.0996 6.71905 18.861 4.48047 16.0996 4.48047C13.3382 4.48047 11.0996 6.71905 11.0996 9.48047C11.0996 12.2419 13.3382 14.4805 16.0996 14.4805Z" fill="#26A69A"/>
</svg>
