<svg width="33" height="33" viewBox="0 0 33 33" fill="none" xmlns="http://www.w3.org/2000/svg">
<path d="M27.5996 4.89722H25.0996V6.39722C25.0996 6.79504 24.9416 7.17657 24.6603 7.45788C24.379 7.73918 23.9974 7.89722 23.5996 7.89722C23.2018 7.89722 22.8203 7.73918 22.5389 7.45788C22.2576 7.17657 22.0996 6.79504 22.0996 6.39722V4.89722H17.5996V6.39722C17.5996 6.79504 17.4416 7.17657 17.1603 7.45788C16.879 7.73918 16.4974 7.89722 16.0996 7.89722C15.7018 7.89722 15.3203 7.73918 15.0389 7.45788C14.7576 7.17657 14.5996 6.79504 14.5996 6.39722V4.89722H10.0996V6.39722C10.0996 6.79504 9.94157 7.17657 9.66027 7.45788C9.37897 7.73918 8.99743 7.89722 8.59961 7.89722C8.20178 7.89722 7.82025 7.73918 7.53895 7.45788C7.25764 7.17657 7.09961 6.79504 7.09961 6.39722V4.89722H4.59961C3.93664 4.89746 3.3009 5.16093 2.83211 5.62971C2.36332 6.0985 2.09985 6.73425 2.09961 7.39722V26.8972C2.09985 27.5602 2.36332 28.1959 2.83211 28.6647C3.3009 29.1335 3.93664 29.397 4.59961 29.3972H22.0996C22.6302 29.3974 23.1391 29.187 23.5146 28.8122C23.5146 28.8122 29.5596 22.7622 29.5796 22.7372C29.9143 22.3713 30.0999 21.8932 30.0996 21.3972V7.39722C30.0994 6.73425 29.8359 6.0985 29.3671 5.62971C28.8983 5.16093 28.2626 4.89746 27.5996 4.89722ZM29.0996 21.3972C29.0977 21.6618 28.9917 21.9151 28.8046 22.1022C28.6175 22.2893 28.3642 22.3953 28.0996 22.3972H25.5996C24.9366 22.3975 24.3009 22.6609 23.8321 23.1297C23.3633 23.5985 23.0998 24.2342 23.0996 24.8972V27.3972C23.0977 27.6618 22.9917 27.9151 22.8046 28.1022C22.6175 28.2893 22.3642 28.3953 22.0996 28.3972H4.59961C4.20214 28.3961 3.82129 28.2376 3.54024 27.9566C3.25918 27.6755 3.10077 27.2947 3.09961 26.8972V11.3972H29.0996V21.3972Z" fill="#26A69A"/>
<path d="M8.59961 6.89722C8.7321 6.89682 8.85904 6.84402 8.95273 6.75033C9.04641 6.65665 9.09921 6.5297 9.09961 6.39722V3.39722C9.09961 3.26461 9.04693 3.13743 8.95316 3.04366C8.85939 2.9499 8.73222 2.89722 8.59961 2.89722C8.467 2.89722 8.33982 2.9499 8.24606 3.04366C8.15229 3.13743 8.09961 3.26461 8.09961 3.39722V6.39722C8.10001 6.5297 8.15281 6.65665 8.24649 6.75033C8.34018 6.84402 8.46712 6.89682 8.59961 6.89722Z" fill="#26A69A"/>
<path d="M16.0996 6.89722C16.2321 6.89682 16.359 6.84402 16.4527 6.75033C16.5464 6.65665 16.5992 6.5297 16.5996 6.39722V3.39722C16.5996 3.26461 16.5469 3.13743 16.4532 3.04366C16.3594 2.9499 16.2322 2.89722 16.0996 2.89722C15.967 2.89722 15.8398 2.9499 15.7461 3.04366C15.6523 3.13743 15.5996 3.26461 15.5996 3.39722V6.39722C15.6 6.5297 15.6528 6.65665 15.7465 6.75033C15.8402 6.84402 15.9671 6.89682 16.0996 6.89722Z" fill="#26A69A"/>
<path d="M23.5996 6.89722C23.7321 6.89682 23.859 6.84402 23.9527 6.75033C24.0464 6.65665 24.0992 6.5297 24.0996 6.39722V3.39722C24.0996 3.26461 24.0469 3.13743 23.9532 3.04366C23.8594 2.9499 23.7322 2.89722 23.5996 2.89722C23.467 2.89722 23.3398 2.9499 23.2461 3.04366C23.1523 3.13743 23.0996 3.26461 23.0996 3.39722V6.39722C23.1 6.5297 23.1528 6.65665 23.2465 6.75033C23.3402 6.84402 23.4671 6.89682 23.5996 6.89722Z" fill="#26A69A"/>
<path d="M13.779 25.9373V26.3973C13.7799 26.5296 13.8328 26.6563 13.9264 26.7499C14.02 26.8435 14.1467 26.8964 14.279 26.8973C14.3785 26.8961 14.4757 26.8666 14.559 26.8123L17.364 24.9423C17.4332 24.8968 17.4899 24.8348 17.5292 24.7619C17.5685 24.689 17.589 24.6076 17.589 24.5248C17.589 24.442 17.5685 24.3605 17.5292 24.2877C17.4899 24.2148 17.4332 24.1528 17.364 24.1073L14.559 22.2373C14.4835 22.1869 14.3957 22.158 14.305 22.1536C14.2143 22.1492 14.1241 22.1695 14.0441 22.2123C13.7255 22.3509 13.7776 22.7757 13.779 23.0573C12.9251 22.9534 12.1239 22.589 11.4843 22.0138C10.8447 21.4386 10.3977 20.6804 10.204 19.8423C10.3782 19.084 10.761 18.3895 11.309 17.8373C11.3554 17.791 11.3922 17.7361 11.4173 17.6756C11.4424 17.6151 11.4553 17.5502 11.4553 17.4847C11.4553 17.4193 11.4424 17.3544 11.4173 17.2939C11.3922 17.2334 11.3554 17.1785 11.309 17.1322C10.4302 16.3745 9.29001 19.0672 9.20409 19.7423C9.06222 20.4533 9.07053 21.1862 9.22847 21.8939C9.38641 22.6016 9.69051 23.2684 10.1213 23.8517C10.552 24.435 11.0999 24.9218 11.7298 25.281C12.3597 25.6401 13.0577 25.8637 13.779 25.9373Z" fill="#26A69A"/>
<path d="M14.8353 15.6872L17.6403 17.5572C17.7159 17.6063 17.8033 17.6344 17.8934 17.6383C17.9835 17.6423 18.0731 17.622 18.1527 17.5797C18.2323 17.5373 18.2991 17.4744 18.3462 17.3974C18.3933 17.3205 18.4189 17.2323 18.4203 17.1422V16.7372C19.2742 16.8411 20.0754 17.2054 20.7151 17.7806C21.3547 18.3558 21.8017 19.114 21.9953 19.9522C21.8211 20.7104 21.4384 21.4049 20.8904 21.9571C20.822 22.0275 20.7757 22.1163 20.7574 22.2127C20.7391 22.3091 20.7495 22.4088 20.7873 22.4993C20.8251 22.5898 20.8886 22.6673 20.9701 22.722C21.0515 22.7767 21.1472 22.8063 21.2453 22.8072C21.3778 22.8057 21.5047 22.7538 21.6003 22.6622C22.2899 21.9658 22.7679 21.0881 22.9788 20.1311C23.1898 19.174 23.125 18.1767 22.7921 17.255C22.4592 16.3332 21.8718 15.5247 21.098 14.9233C20.3242 14.3219 19.3957 13.9522 18.4203 13.8572V13.3972C18.4193 13.3068 18.3939 13.2184 18.347 13.1412C18.3 13.064 18.2331 13.0009 18.1533 12.9584C18.0736 12.916 17.9838 12.8958 17.8936 12.9C17.8033 12.9041 17.7158 12.9325 17.6403 12.9822L14.8353 14.8522C14.7669 14.8982 14.711 14.9604 14.6722 15.0332C14.6335 15.106 14.6133 15.1872 14.6133 15.2697C14.6133 15.3521 14.6335 15.4333 14.6722 15.5061C14.711 15.5789 14.7669 15.6411 14.8353 15.6872Z" fill="#26A69A"/>
</svg>
