<svg width="33" height="33" viewBox="0 0 33 33" fill="none" xmlns="http://www.w3.org/2000/svg">
<path d="M16.06 7.57715C13.5533 7.57715 11.5 9.61715 11.5 12.1371C11.5 14.6571 13.54 16.6971 16.06 16.6971C18.58 16.6971 20.62 14.6571 20.62 12.1371C20.62 9.61715 18.58 7.57715 16.06 7.57715Z" fill="#26A69A"/>
<path d="M25.4327 27.0971C25.1794 27.0971 24.9127 26.9905 24.7127 26.7905C24.3261 26.3905 24.3261 25.7638 24.7261 25.3771C27.1127 23.0438 28.4194 19.9105 28.4194 16.5638C28.4194 9.7638 22.8861 4.23047 16.0861 4.23047C14.8194 4.23047 13.5794 4.41714 12.3927 4.79047C11.8594 4.95047 11.2994 4.65714 11.1394 4.13714C10.9794 3.6038 11.2727 3.0438 11.7927 2.8838C13.1794 2.4438 14.6194 2.23047 16.0994 2.23047C24.0061 2.23047 30.4327 8.65714 30.4327 16.5638C30.4327 20.4438 28.8994 24.0838 26.1394 26.8038C25.9394 26.9905 25.6861 27.0838 25.4461 27.0838L25.4327 27.0971Z" fill="#26A69A"/>
<path d="M16.099 30.9104C8.19229 30.9104 1.76562 24.4837 1.76562 16.577C1.76562 12.8037 3.21896 9.24371 5.85896 6.53704C6.24563 6.13704 6.87229 6.13704 7.27229 6.52371C7.67229 6.91037 7.67229 7.55037 7.28562 7.93704C5.00562 10.257 3.76562 13.3237 3.76562 16.577C3.76562 23.377 9.29896 28.9104 16.099 28.9104C17.3656 28.9104 18.6056 28.7237 19.7923 28.3504C20.3256 28.1904 20.8856 28.4837 21.0456 29.0037C21.2056 29.537 20.9123 30.097 20.3923 30.257C19.0056 30.697 17.5656 30.9104 16.0856 30.9104H16.099Z" fill="#26A69A"/>
<path d="M26.7663 28.2438H24.0996C23.5529 28.2438 23.0996 27.7905 23.0996 27.2438V24.5771C23.0996 24.0305 23.5529 23.5771 24.0996 23.5771C24.6463 23.5771 25.0996 24.0305 25.0996 24.5771V26.2438H26.7663C27.3129 26.2438 27.7663 26.6971 27.7663 27.2438C27.7663 27.7905 27.3129 28.2438 26.7663 28.2438Z" fill="#26A69A"/>
<path d="M8.10026 9.57731C7.55359 9.57731 7.10026 9.12398 7.10026 8.57731V6.91064H5.43359C4.88693 6.91064 4.43359 6.45731 4.43359 5.91064C4.43359 5.36398 4.88693 4.91064 5.43359 4.91064H8.10026C8.64693 4.91064 9.10026 5.36398 9.10026 5.91064V8.57731C9.10026 9.12398 8.64693 9.57731 8.10026 9.57731Z" fill="#26A69A"/>
<path d="M20.2997 16.2036C19.233 17.3236 17.7264 18.0303 16.0597 18.0303C14.393 18.0303 12.9264 17.3369 11.8464 16.2436C10.0464 17.3503 8.87305 19.1369 8.87305 21.1369C8.87305 21.9236 9.33971 23.0169 11.5264 23.6703C12.753 24.0303 14.3664 24.2436 16.0997 24.2436C17.833 24.2436 23.3264 24.0169 23.3264 21.1369C23.3264 19.0969 22.1264 17.3103 20.2997 16.2036Z" fill="#26A69A"/>
</svg>
