<svg width="33" height="33" viewBox="0 0 33 33" fill="none" xmlns="http://www.w3.org/2000/svg">
<path fill-rule="evenodd" clip-rule="evenodd" d="M26.0367 13.956C26.3123 13.956 26.5358 14.1795 26.5358 14.4551C26.5358 14.7307 26.3123 14.9542 26.0367 14.9542H25.1542C24.8786 14.9542 24.6551 14.7307 24.6551 14.4551C24.6551 14.1795 24.8786 13.956 25.1542 13.956H26.0367ZM7.69232 28.5416V22.7666C7.69232 22.6856 7.62448 22.6177 7.54345 22.6177H5.81097C5.72995 22.6177 5.66211 22.6856 5.66211 22.7666V28.5416C5.66211 28.6226 5.72995 28.6904 5.81097 28.6904H7.54352C7.62448 28.6904 7.69232 28.6225 7.69232 28.5416ZM17.163 22.8475L13.7306 21.7119C12.8637 21.4506 12.1646 21.8012 11.4306 22.1694C10.9996 22.3855 10.2796 22.8855 9.76848 23.0248L8.5496 23.3306V27.5178C10.0805 27.5038 11.6706 27.5157 13.1733 27.7323C14.292 27.8936 15.4907 28.3157 16.5632 28.2284C17.9475 28.1157 19.4597 27.1924 20.6003 26.4529C22.2501 25.3834 24.7991 23.6726 26.1814 22.328C27.1227 20.6608 24.9179 21.3039 25.1171 21.2167C23.9184 21.8922 17.4201 25.4113 16.3759 25.1171C16.3584 25.1131 16.3413 25.108 16.3247 25.102L13.4528 24.2362C13.2262 24.1687 13.0973 23.9303 13.1648 23.7038C13.2322 23.4772 13.4707 23.3483 13.6972 23.4158L16.5941 24.2891C17.4126 24.5358 17.9783 23.0933 17.163 22.8475ZM16.9727 14.6229L22.6647 11.6604V18.3641L16.9727 21.3266V14.6229ZM10.9226 10.9545L16.544 13.8802L22.1655 10.9545L16.544 8.02869L10.9226 10.9545ZM10.4235 11.6604L16.1154 14.6229V21.3265L10.4235 18.3641V11.6604ZM9.47888 8.09563C9.28406 7.90082 9.28406 7.58472 9.47888 7.38991C9.67369 7.19509 9.98973 7.19509 10.1846 7.38991L10.8086 8.01391C11.0034 8.20872 11.0034 8.52482 10.8086 8.71963C10.6138 8.91445 10.2978 8.91445 10.1029 8.71963L9.47888 8.09563ZM7.05142 14.9541C6.77584 14.9541 6.55235 14.7306 6.55235 14.4551C6.55235 14.1795 6.77584 13.956 7.05142 13.956H7.93392C8.2095 13.956 8.43299 14.1795 8.43299 14.4551C8.43299 14.7306 8.2095 14.9541 7.93392 14.9541H7.05142ZM16.045 4.96245C16.045 4.68687 16.2685 4.46338 16.5441 4.46338C16.8197 4.46338 17.0432 4.68687 17.0432 4.96245V5.84495C17.0432 6.12053 16.8197 6.34402 16.5441 6.34402C16.2685 6.34402 16.045 6.12053 16.045 5.84495V4.96245ZM22.9035 7.38991C23.0983 7.19509 23.4144 7.19509 23.6092 7.38991C23.8041 7.58472 23.8041 7.90082 23.6092 8.09563L22.9852 8.71963C22.7904 8.91445 22.4744 8.91445 22.2795 8.71963C22.0846 8.52482 22.0846 8.20872 22.2795 8.01391L22.9035 7.38991Z" fill="#26A69A"/>
</svg>
