<svg width="33" height="33" viewBox="0 0 33 33" fill="none" xmlns="http://www.w3.org/2000/svg">
<g opacity="0.7">
<path d="M15.8333 16.527C19.8834 16.527 23.1667 13.2438 23.1667 9.19369C23.1667 5.1436 19.8834 1.86035 15.8333 1.86035C11.7832 1.86035 8.5 5.1436 8.5 9.19369C8.5 13.2438 11.7832 16.527 15.8333 16.527Z" fill="#F57C00"/>
<path fill-rule="evenodd" clip-rule="evenodd" d="M17.7417 29.2096C16.351 27.7216 15.5003 25.7229 15.5003 23.5269C15.5003 21.2856 16.387 19.2509 17.827 17.7523C17.1777 17.7029 16.511 17.6763 15.8337 17.6763C11.4043 17.6763 7.48299 18.7843 5.04833 20.4443C3.19099 21.7109 2.16699 23.3203 2.16699 25.0096V26.9443C2.16699 27.5443 2.40566 28.1216 2.83099 28.5469C3.25633 28.9709 3.83233 29.2109 4.43366 29.2109L17.7417 29.2096Z" fill="#F57C00"/>
<path fill-rule="evenodd" clip-rule="evenodd" d="M23.834 16.5269C19.97 16.5269 16.834 19.6629 16.834 23.5269C16.834 27.3909 19.97 30.5269 23.834 30.5269C27.698 30.5269 30.834 27.3909 30.834 23.5269C30.834 19.6629 27.698 16.5269 23.834 16.5269ZM24.834 22.5269V21.1935C24.834 20.6415 24.386 20.1935 23.834 20.1935C23.282 20.1935 22.834 20.6415 22.834 21.1935V22.5269H21.5007C20.9487 22.5269 20.5007 22.9749 20.5007 23.5269C20.5007 24.0789 20.9487 24.5269 21.5007 24.5269H22.834V25.8602C22.834 26.4122 23.282 26.8602 23.834 26.8602C24.386 26.8602 24.834 26.4122 24.834 25.8602V24.5269H26.1673C26.7193 24.5269 27.1673 24.0789 27.1673 23.5269C27.1673 22.9749 26.7193 22.5269 26.1673 22.5269H24.834Z" fill="#F57C00"/>
</g>
</svg>
