<svg width="45" height="45" viewBox="0 0 45 45" fill="none" xmlns="http://www.w3.org/2000/svg">
<circle cx="22.5" cy="22.5" r="22.5" fill="#FFF8F2"/>
<g clip-path="url(#clip0_199_3869)">
<path d="M34.901 22.2305C34.9007 22.2302 34.9004 22.2299 34.9001 22.2296L29.8901 17.2438C29.5148 16.8703 28.9077 16.8717 28.5341 17.2471C28.1606 17.6224 28.162 18.2295 28.5374 18.603L31.901 21.9504H11.5955C11.066 21.9504 10.6367 22.3796 10.6367 22.9092C10.6367 23.4387 11.066 23.868 11.5955 23.868H31.901L28.5374 27.2154C28.1621 27.5889 28.1606 28.196 28.5342 28.5713C28.9078 28.9468 29.5149 28.9481 29.8902 28.5746L34.9001 23.5888C34.9004 23.5885 34.9007 23.5882 34.901 23.5879C35.2765 23.2131 35.2753 22.6041 34.901 22.2305Z" fill="#333333"/>
</g>
<defs>
<clipPath id="clip0_199_3869">
<rect width="24.5455" height="24.5455" fill="white" transform="translate(10.6367 10.6365)"/>
</clipPath>
</defs>
</svg>
