<svg width="32" height="32" viewBox="0 0 32 32" fill="none" xmlns="http://www.w3.org/2000/svg">
<g clip-path="url(#clip0_63_1835)">
<path d="M16 24C20.4183 24 24 20.4183 24 16C24 11.5817 20.4183 8 16 8C11.5817 8 8 11.5817 8 16C8 20.4183 11.5817 24 16 24Z" fill="#FFA726"/>
<path d="M16.0004 4.79944C15.116 4.79944 14.4004 4.083 14.4004 3.19944V1.6C14.4004 0.716438 15.116 0 16.0004 0C16.8848 0 17.6004 0.716438 17.6004 1.6V3.19944C17.6004 4.083 16.8848 4.79944 16.0004 4.79944Z" fill="#FFA726"/>
<path d="M25.0512 8.54854C24.6418 8.54854 24.2324 8.39229 23.9199 8.07979C23.2949 7.45498 23.2949 6.44192 23.9199 5.81711L25.0512 4.68604C25.6762 4.06142 26.6887 4.06123 27.3137 4.68623C27.9387 5.31105 27.9387 6.32411 27.3137 6.94892L26.1824 8.07998C25.8699 8.3923 25.4605 8.54854 25.0512 8.54854Z" fill="#FFA726"/>
<path d="M30.4002 17.5999H28.8002C27.9158 17.5999 27.2002 16.8835 27.2002 15.9999C27.2002 15.1163 27.9158 14.3999 28.8002 14.3999H30.4002C31.2846 14.3999 32.0002 15.1163 32.0002 15.9999C32.0002 16.8835 31.2846 17.5999 30.4002 17.5999Z" fill="#FFA726"/>
<path d="M26.1824 27.7823C25.773 27.7823 25.3637 27.6263 25.0512 27.3138L23.9199 26.1827C23.2949 25.5579 23.2949 24.5448 23.9199 23.92C24.5449 23.295 25.5574 23.2948 26.1824 23.9198L27.3137 25.0509C27.9387 25.6757 27.9387 26.6888 27.3137 27.3136C27.0012 27.6261 26.5918 27.7823 26.1824 27.7823Z" fill="#FFA726"/>
<path d="M16.0004 32.0001C15.116 32.0001 14.4004 31.2837 14.4004 30.4001V28.8007C14.4004 27.9171 15.116 27.2007 16.0004 27.2007C16.8848 27.2007 17.6004 27.9171 17.6004 28.8007V30.4001C17.6004 31.2837 16.8848 32.0001 16.0004 32.0001Z" fill="#FFA726"/>
<path d="M5.8168 27.7824C5.40742 27.7824 4.99805 27.6262 4.68555 27.3137C4.06055 26.6889 4.06055 25.6758 4.68555 25.051L5.8168 23.9199C6.4418 23.2953 7.4543 23.2951 8.0793 23.9201C8.7043 24.5449 8.7043 25.558 8.0793 26.1828L6.94805 27.3139C6.63555 27.6262 6.22617 27.7824 5.8168 27.7824Z" fill="#FFA726"/>
<path d="M3.2 17.5999H1.6C0.715625 17.5999 0 16.8835 0 15.9999C0 15.1163 0.715625 14.3999 1.6 14.3999H3.2C4.08437 14.3999 4.8 15.1163 4.8 15.9999C4.8 16.8835 4.08437 17.5999 3.2 17.5999Z" fill="#FFA726"/>
<path d="M6.94805 8.54869C6.53867 8.54869 6.1293 8.39262 5.8168 8.08012L4.68555 6.94906C4.06055 6.32425 4.06055 5.31119 4.68555 4.68637C5.31055 4.06137 6.32305 4.06119 6.94805 4.68619L8.0793 5.81725C8.7043 6.44206 8.7043 7.45512 8.0793 8.07994C7.7668 8.39244 7.35742 8.54869 6.94805 8.54869Z" fill="#FFA726"/>
</g>
<defs>
<clipPath id="clip0_63_1835">
<rect width="32" height="32" fill="white"/>
</clipPath>
</defs>
</svg>
