<svg width="185" height="124" viewBox="0 0 185 124" fill="none" xmlns="http://www.w3.org/2000/svg">
<g opacity="0.5">
<path fill-rule="evenodd" clip-rule="evenodd" d="M49.35 57.0418C47.6345 64.8837 47.3113 72.8758 48.4344 80.8458C49.162 85.9995 50.224 91.1074 51.1337 96.2338C51.2892 97.1019 51.5456 97.974 51.5535 98.846C51.5756 100.917 50.2571 102.426 48.2393 102.819C46.2719 103.203 44.5498 102.207 43.8028 100.209C43.5713 99.588 43.4287 98.9318 43.3024 98.2798C42.5132 94.2551 41.713 90.2358 40.9743 86.2026C39.1523 76.2745 39.252 66.3166 41.1617 56.4476C42.8867 47.5279 46.2721 39.2253 52.1101 32.1272C59.5629 23.0647 68.9141 17.3009 80.645 15.2955C91.019 13.5181 100.939 14.4759 110.563 18.6949C111.161 18.9557 111.79 19.1377 112.41 19.3569C114.032 18.2396 115.549 17.1297 117.124 16.1176C124.36 11.4787 132.482 9.28488 140.807 7.78312C149.01 6.30076 157.327 6.11653 165.64 5.9796C166.3 5.97034 166.981 5.96666 167.618 6.11207C169.43 6.53295 170.643 8.11413 170.681 9.98079C170.712 11.6456 169.613 13.245 167.944 13.7341C167.11 13.9798 166.205 14.0397 165.33 14.0776C161.897 14.2283 158.465 14.3296 155.034 14.46C146.004 14.8051 137.189 16.2869 128.676 19.4033C125.748 20.4749 123.034 21.9191 120.101 23.972C121.348 25.0261 122.243 25.8283 123.182 26.5758C128.956 31.1774 132.97 37.0825 135.881 43.7903C137.991 48.6435 138.479 53.643 136.767 58.711C135.11 63.6213 131.619 66.7225 126.613 67.8155C122.506 68.7134 118.379 68.2094 114.648 66.1959C105.786 61.4101 100.738 54.0624 100.226 43.8599C99.9552 38.4883 101.472 33.5676 104.238 28.9965C104.851 27.986 105.446 26.9645 106.01 26.0097C105.684 25.6869 105.559 25.4724 105.376 25.3933C104.765 25.1261 104.145 24.8839 103.516 24.674C96.9777 22.5098 90.3386 22.056 83.5037 23.041C74.8519 24.2886 67.4752 27.8862 61.281 34.0408C54.8376 40.4436 51.2529 48.3591 49.35 57.0418ZM111.307 52.7366C113.093 55.3152 115.297 57.4453 118.136 58.8584C119.963 59.7689 121.886 60.1618 123.912 59.9679C126.793 59.6894 128.543 58.164 129.26 55.3622C129.942 52.6986 129.697 50.089 128.668 47.5718C125.792 40.5457 121.281 34.8099 114.977 30.53C114.63 30.2895 114.215 30.1431 113.861 29.9685C107.636 35.8653 106.536 45.8516 111.307 52.7366Z" fill="#FFA726"/>
<path fill-rule="evenodd" clip-rule="evenodd" d="M12.6049 97.5368C13.4009 95.7639 15.3528 94.802 17.2872 95.3137C18.1366 95.541 18.9453 95.9373 19.7487 96.3034C25.3965 98.88 31.0108 101.524 36.6908 104.026C40.0335 105.497 43.4627 106.78 46.8771 108.08C47.9045 108.474 49.0018 108.791 50.0884 108.889C54.6437 109.301 55.2762 108.294 55.9894 104.871C56.596 101.955 57.0223 98.9734 57.1956 95.9962C57.4918 90.9164 57.526 85.8182 57.6766 80.7249C57.7068 79.7289 57.6847 78.7211 57.8353 77.7432C58.1753 75.5354 59.8548 74.153 61.9811 74.2218C63.89 74.2822 65.4129 75.6981 65.7564 77.7813C65.8441 78.326 65.8618 78.8856 65.8435 79.4378C65.6699 85.4153 65.6012 91.3995 65.2518 97.3685C65.0664 100.562 64.4868 103.742 63.9005 106.892C63.4726 109.194 62.4825 111.303 61.0771 113.22C59.8409 114.911 58.3372 116.095 56.1581 116.422C52.6064 117.52 48.9755 117.392 45.4424 116.157C41.6804 114.843 37.9356 113.447 34.2839 111.855C28.1896 109.198 22.1761 106.355 16.1313 103.582C15.4297 103.258 14.7079 102.947 14.0684 102.519C12.4093 101.402 11.8174 99.2879 12.6049 97.5368Z" fill="#FFA726"/>
</g>
</svg>
