<svg width="46" height="46" viewBox="0 0 46 46" fill="none" xmlns="http://www.w3.org/2000/svg">
<g clip-path="url(#clip0_739_3619)">
<path d="M26.7871 28.2546C25.6676 29.0009 24.3671 29.3955 23.0264 29.3955C21.6857 29.3955 20.3853 29.0009 19.2657 28.2546L0.825986 15.9611C0.723682 15.8929 0.624014 15.8217 0.526367 15.7486V35.8929C0.526367 38.2025 2.40063 40.0354 4.66892 40.0354H41.3837C43.6933 40.0354 45.5263 38.1612 45.5263 35.8929V15.7485C45.4285 15.8218 45.3286 15.8931 45.226 15.9614L26.7871 28.2546Z" fill="#26A69A"/>
<path d="M2.28857 13.7671L20.7283 26.0607C21.4263 26.5261 22.2263 26.7588 23.0263 26.7588C23.8263 26.7588 24.6264 26.526 25.3244 26.0607L43.7642 13.7671C44.8676 13.0319 45.5264 11.8014 45.5264 10.4734C45.5264 8.18993 43.6686 6.33228 41.3852 6.33228H4.66751C2.38411 6.33236 0.526367 8.19002 0.526367 10.4756C0.526367 11.8014 1.1852 13.0319 2.28857 13.7671Z" fill="#26A69A"/>
</g>
<defs>
<clipPath id="clip0_739_3619">
<rect width="45" height="45" fill="white" transform="translate(0.526367 0.684082)"/>
</clipPath>
</defs>
</svg>
