<svg width="168" height="154" viewBox="0 0 168 154" fill="none" xmlns="http://www.w3.org/2000/svg">
<g opacity="0.3">
<path d="M140.616 36.1485C270.956 28.8557 186.237 -100.576 127.405 15.9475C186.26 -100.576 31.8046 -91.9315 103.289 17.2989C31.8046 -91.9315 -37.9323 46.1443 92.4079 38.8514C-37.9323 46.1443 46.7865 175.576 105.619 59.0525C46.7632 175.576 201.219 166.931 129.735 57.701C201.219 166.931 270.956 28.8557 140.616 36.1485ZM132.158 53.1576C123.513 61.8018 109.51 61.8018 100.866 53.1576C92.2215 44.5133 92.2215 30.51 100.866 21.8657C109.51 13.2214 123.513 13.2214 132.158 21.8657C140.802 30.51 140.802 44.5133 132.158 53.1576Z" fill="#F06292"/>
<path d="M116.5 59.635C128.725 59.635 138.635 49.7248 138.635 37.5C138.635 25.2752 128.725 15.365 116.5 15.365C104.275 15.365 94.3652 25.2752 94.3652 37.5C94.3652 49.7248 104.275 59.635 116.5 59.635Z" fill="#64B5F6"/>
</g>
</svg>
