<svg width="202" height="198" viewBox="0 0 202 198" fill="none" xmlns="http://www.w3.org/2000/svg">
<g opacity="0.3" clip-path="url(#clip0_23_436)">
<path d="M59.5487 15.7865C42.8502 22.2146 48.5255 63.1032 54.1576 85.9245C54.4191 86.9847 53.1252 87.7675 52.3161 87.0343C31.9033 68.5434 -9.78297 37.6092 -29.2871 55.1191C-45.1239 69.3361 -0.187473 110.345 26.5242 130.894C27.3462 131.526 26.9107 132.857 25.8733 132.876C-5.34665 133.442 -59.8649 139.799 -51.0479 161.68C-40.1703 188.674 -2.35243 191.557 30.2102 181.582C31.3234 181.241 32.2645 182.731 31.4757 183.588C20.1385 195.899 -0.0803185 223.992 19.8626 239.378C30.9365 247.921 45.9507 237.218 63.3115 195.371C63.758 194.295 65.4437 194.555 65.5554 195.715C68.3107 224.325 82.7624 253.363 110.075 249.479C140.936 245.091 126.276 208.507 105.238 176.01C104.654 175.107 105.607 173.977 106.601 174.386C149.73 192.136 176.03 191.47 181.374 175.424C185.604 162.721 144.407 144.36 121.069 135.922C120.159 135.593 120.12 134.313 120.989 133.888C167.167 111.37 177.717 89.5544 163.866 70.8815C153.011 56.2482 122.653 77.6011 107.261 91.4341C106.579 92.0478 105.493 91.6028 105.461 90.6855C105.256 84.9333 105.124 73.234 105.777 58.5059C106.725 37.1372 81.5995 7.29773 59.5487 15.7865Z" fill="#26A69A"/>
<path fill-rule="evenodd" clip-rule="evenodd" d="M110.45 17.2634C101.613 8.27713 90.0938 3.15493 79.4367 7.25741C75.5236 8.76389 72.8501 12.3113 71.1564 17.3046C69.4623 22.2976 68.7841 28.6401 68.8015 35.5452C68.8372 49.3487 71.6511 65.218 74.4604 76.6009C74.8786 78.2955 72.8223 79.5665 71.5067 78.3754C61.3204 69.148 45.8462 56.836 30.5115 49.0186C22.8419 45.109 15.2492 42.3455 8.39612 41.631C1.55499 40.9177 -4.49632 42.2485 -9.18946 46.4618C-12.8356 49.7349 -13.0902 54.5991 -10.7278 60.6599C-8.36708 66.7162 -3.46052 73.7473 2.82102 81.0285C15.3717 95.5774 33.2435 110.935 46.5824 121.196C47.908 122.216 47.214 124.362 45.5312 124.393C29.9435 124.675 8.57174 126.404 -7.7809 130.778C-15.9702 132.969 -22.8149 135.801 -27.0567 139.384C-29.1694 141.169 -30.604 143.112 -31.2629 145.224C-31.9182 147.324 -31.8261 149.656 -30.7744 152.266C-25.4494 165.48 -13.5204 172.847 1.22161 175.668C15.971 178.49 33.4513 176.737 49.6572 171.773C50.578 171.491 51.3792 171.987 51.7741 172.613C52.1695 173.238 52.2726 174.176 51.6193 174.885C45.9732 181.016 38.1513 191.042 34.2173 201.409C32.2518 206.588 31.2755 211.805 31.9849 216.642C32.6908 221.455 35.0731 225.939 39.9214 229.681C42.568 231.722 45.4032 232.586 48.4329 232.159C51.4834 231.729 54.8181 229.978 58.4118 226.615C65.6101 219.879 73.6592 206.853 82.331 185.95C82.6986 185.065 83.5757 184.761 84.3074 184.874C85.0381 184.986 85.7833 185.538 85.875 186.489C87.2453 200.72 91.5226 215.005 98.8033 225.228C106.066 235.425 116.278 241.545 129.625 239.648C137.197 238.571 141.852 235.544 144.356 231.218C146.878 226.861 147.302 221.047 146.097 214.243C143.685 200.627 134.826 183.453 124.315 167.217C123.36 165.742 124.912 163.944 126.504 164.599C148.037 173.46 165.299 177.694 177.805 177.74C190.317 177.786 197.841 173.662 200.376 166.049C201.301 163.274 199.793 160.014 196.183 156.397C192.616 152.822 187.195 149.107 180.869 145.501C168.229 138.295 152.134 131.61 140.484 127.398C138.973 126.852 138.967 124.787 140.338 124.118C163.393 112.875 177.435 101.86 184.01 91.4207C187.29 86.2147 188.702 81.1689 188.472 76.3082C188.243 71.4454 186.367 66.7072 182.967 62.1238C180.418 58.6869 176.724 57.3355 172.275 57.4898C167.797 57.6451 162.603 59.3303 157.204 61.9319C146.415 67.1309 135.031 75.881 127.359 82.7767C126.265 83.761 124.483 83.0605 124.429 81.5484C124.223 75.7783 124.092 64.0606 124.746 49.3148C125.209 38.8722 119.28 26.2432 110.45 17.2634ZM111.415 16.3135C120.424 25.4735 126.584 38.4486 126.099 49.3749C125.447 64.0844 125.578 75.7659 125.783 81.5003C125.794 81.8227 126.184 82.0117 126.454 81.7692C134.173 74.8313 145.665 65.9884 156.616 60.7115C162.087 58.0747 167.479 56.3007 172.228 56.136C177.005 55.9698 181.177 57.4367 184.055 61.3167C187.581 66.0698 189.58 71.061 189.826 76.2442C190.07 81.4293 188.556 86.746 185.157 92.1425C178.376 102.908 164.053 114.06 140.932 125.336C140.762 125.418 140.678 125.58 140.684 125.755C140.69 125.927 140.781 126.064 140.945 126.124C152.632 130.35 168.806 137.064 181.54 144.324C187.902 147.951 193.446 151.736 197.142 155.44C200.797 159.102 202.852 162.901 201.662 166.477C198.853 174.911 190.556 179.142 177.8 179.095C165.037 179.048 147.585 174.74 125.988 165.852C125.591 165.688 125.238 166.15 125.452 166.481C135.979 182.741 144.969 200.107 147.431 214.006C148.662 220.958 148.28 227.144 145.528 231.897C142.759 236.68 137.673 239.871 129.816 240.989C115.85 242.974 105.18 236.518 97.6999 226.014C90.2377 215.536 85.9113 200.998 84.5267 186.619C84.5063 186.41 84.353 186.251 84.1015 186.213C83.8505 186.174 83.6615 186.278 83.5826 186.469C74.893 207.414 66.7546 220.663 59.3375 227.604C55.6233 231.08 52.0429 233.018 48.6214 233.5C45.1785 233.986 41.9846 232.983 39.0939 230.753C33.9712 226.801 31.402 222.004 30.6444 216.838C29.8899 211.695 30.9376 206.234 32.9508 200.928C36.9751 190.324 44.9309 180.148 50.6226 173.967C50.7586 173.82 50.7853 173.584 50.6286 173.336C50.4718 173.088 50.2461 173.009 50.0536 173.068C33.6964 178.079 15.9869 179.873 0.967117 176.998C-14.0599 174.123 -26.4785 166.552 -32.031 152.772C-33.1836 149.912 -33.3165 147.257 -32.5561 144.82C-31.7991 142.394 -30.1771 140.247 -27.9308 138.349C-23.4546 134.568 -16.3717 131.674 -8.131 129.47C8.37628 125.054 29.8735 123.321 45.5064 123.038C45.8978 123.031 46.0749 122.515 45.7564 122.27C32.3837 111.982 14.4311 96.5607 1.7951 81.9135C-4.5168 74.5966 -9.54452 67.4256 -11.99 61.152C-14.4338 54.8824 -14.3667 49.2891 -10.0945 45.4537C-5.03552 40.9121 1.43791 39.5434 8.53652 40.2836C15.6227 41.0224 23.3846 43.865 31.1266 47.8116C46.6137 55.7069 62.1896 68.1072 72.416 77.3713C72.5668 77.5077 72.7583 77.5161 72.9335 77.4105C73.1096 77.3043 73.1949 77.1267 73.1453 76.9258C70.322 65.4874 67.4829 49.5019 67.4472 35.5486C67.4293 28.5753 68.1109 22.064 69.873 16.8694C71.6357 11.675 74.5145 7.70067 78.9501 5.99311C90.3444 1.6068 102.414 7.15997 111.415 16.3135Z" fill="#4DB6AC" fill-opacity="0.5"/>
</g>
<defs>
<clipPath id="clip0_23_436">
<rect width="254" height="254" fill="white" transform="translate(-52)"/>
</clipPath>
</defs>
</svg>
