<svg width="81" height="81" viewBox="0 0 81 81" fill="none" xmlns="http://www.w3.org/2000/svg">
<circle cx="40.5264" cy="40.658" r="40" fill="#BA68C8" fill-opacity="0.15"/>
<g clip-path="url(#clip0_168_6936)">
<path d="M45.4556 53.2283H36.884C36.5035 53.2283 36.17 53.372 35.8843 53.6572C35.5983 53.9432 35.4556 54.2762 35.4556 54.6572V63.2292C35.4556 63.6103 35.5988 63.9437 35.8843 64.2292C36.17 64.5143 36.5031 64.6578 36.884 64.6578H45.4556C45.8362 64.6578 46.1705 64.5147 46.4551 64.2292C46.7416 63.9437 46.8846 63.6103 46.8846 63.2292V54.6572C46.8846 54.2762 46.742 53.9432 46.4551 53.6572C46.1705 53.3713 45.8362 53.2283 45.4556 53.2283Z" fill="#F06292"/>
<path d="M56.7069 27.5689C55.7304 25.7703 54.4688 24.2532 52.9208 23.0148C51.3738 21.7768 49.6345 20.7882 47.7063 20.0504C45.7777 19.3129 43.8612 18.9436 41.956 18.9436C34.7183 18.9436 29.1945 22.1103 25.3847 28.4439C25.1944 28.7533 25.1287 29.0865 25.1882 29.4438C25.248 29.8006 25.4325 30.0983 25.742 30.3363L31.5993 34.801C31.9088 34.9912 32.2065 35.0864 32.4924 35.0864C32.9211 35.0864 33.2898 34.8956 33.5997 34.5147C35.3137 32.3721 36.5878 31.0031 37.421 30.4075C38.445 29.7173 39.7304 29.3722 41.278 29.3722C42.7304 29.3722 44.0098 29.7533 45.1174 30.5146C46.2245 31.2767 46.7775 32.1577 46.7775 33.1577C46.7775 34.2763 46.4804 35.1814 45.885 35.872C45.2899 36.5622 44.2895 37.2286 42.8845 37.8717C41.0278 38.7049 39.3247 39.9968 37.7778 41.7468C36.2298 43.497 35.4563 45.3601 35.4563 47.3362V48.9433C35.4563 49.3962 35.5807 49.8424 35.8311 50.2828C36.0813 50.7236 36.3846 50.9437 36.742 50.9437H45.3135C45.6946 50.9437 46.0276 50.7595 46.3135 50.3893C46.5986 50.0212 46.7421 49.6342 46.7421 49.23C46.7421 48.635 47.0695 47.8365 47.7237 46.837C48.3786 45.837 49.1938 45.0624 50.1708 44.5146C51.0988 43.991 51.8244 43.5689 52.3488 43.2471C52.8737 42.9261 53.5577 42.4071 54.4032 41.6933C55.2483 40.9788 55.9032 40.2704 56.3669 39.5682C56.8314 38.8659 57.2483 37.955 57.6173 36.8357C57.9871 35.7167 58.1712 34.5142 58.1712 33.2286C58.171 31.2524 57.6825 29.3656 56.7069 27.5689Z" fill="#F06292"/>
</g>
<defs>
<clipPath id="clip0_168_6936">
<rect width="45.7143" height="45.7143" fill="white" transform="translate(18.8118 18.9436)"/>
</clipPath>
</defs>
</svg>
