<svg width="24" height="25" viewBox="0 0 24 25" fill="none" xmlns="http://www.w3.org/2000/svg">
<path d="M7 18.2871H17C17.7949 18.2847 18.5566 17.9679 19.1187 17.4058C19.6808 16.8437 19.9976 16.082 20 15.2871V5.28711C19.9976 4.49219 19.6808 3.73051 19.1187 3.16841C18.5566 2.60632 17.7949 2.28948 17 2.28711H7C6.20508 2.28948 5.4434 2.60632 4.8813 3.16841C4.31921 3.73051 4.00237 4.49219 4 5.28711V19.2871C4 20.0828 4.31607 20.8458 4.87868 21.4084C5.44129 21.971 6.20435 22.2871 7 22.2871H19C19.2652 22.2871 19.5196 22.1818 19.7071 21.9942C19.8946 21.8067 20 21.5523 20 21.2871C20 21.0219 19.8946 20.7675 19.7071 20.58C19.5196 20.3925 19.2652 20.2871 19 20.2871H7C6.73478 20.2871 6.48043 20.1818 6.29289 19.9942C6.10536 19.8067 6 19.5523 6 19.2871C6 19.0219 6.10536 18.7675 6.29289 18.58C6.48043 18.3925 6.73478 18.2871 7 18.2871ZM12 5.28711C12.1978 5.28711 12.3911 5.34576 12.5556 5.45564C12.72 5.56552 12.8482 5.7217 12.9239 5.90443C12.9996 6.08715 13.0194 6.28822 12.9808 6.4822C12.9422 6.67618 12.847 6.85436 12.7071 6.99422C12.5673 7.13407 12.3891 7.22931 12.1951 7.2679C12.0011 7.30648 11.8 7.28668 11.6173 7.21099C11.4346 7.1353 11.2784 7.00713 11.1685 6.84268C11.0586 6.67823 11 6.48489 11 6.28711C11 6.02189 11.1054 5.76754 11.2929 5.58C11.4804 5.39247 11.7348 5.28711 12 5.28711ZM11 9.28711C11 9.02189 11.1054 8.76754 11.2929 8.58C11.4804 8.39247 11.7348 8.28711 12 8.28711C12.2652 8.28711 12.5196 8.39247 12.7071 8.58C12.8946 8.76754 13 9.02189 13 9.28711V14.2871C13 14.5523 12.8946 14.8067 12.7071 14.9942C12.5196 15.1818 12.2652 15.2871 12 15.2871C11.7348 15.2871 11.4804 15.1818 11.2929 14.9942C11.1054 14.8067 11 14.5523 11 14.2871V9.28711Z" fill="#26A69A"/>
</svg>
