<svg width="25" height="24" viewBox="0 0 25 24" fill="none" xmlns="http://www.w3.org/2000/svg">
<path d="M5.83285 17.6062C5.94535 17.6437 6.06535 17.6624 6.2041 17.6624C6.74035 17.6624 7.2091 17.3212 7.36285 16.8112L8.7541 12.3449L10.5054 12.7199L10.9703 14.6549C11.0978 15.2024 11.5854 15.5849 12.1479 15.5849C12.2416 15.5849 12.3354 15.5737 12.4291 15.5512C12.7441 15.4762 13.0141 15.2812 13.1828 15.0074C13.3516 14.7299 13.4041 14.4074 13.3291 14.0924L12.6878 11.4149C12.5791 10.9649 12.2154 10.6124 11.7616 10.5149L9.1516 9.9562L9.1891 7.69495L11.4241 8.58745C12.0429 8.83495 12.7516 8.53495 12.9991 7.91995C13.1229 7.61995 13.1191 7.28995 12.9916 6.9937C12.8641 6.69745 12.6279 6.46495 12.3279 6.34495L8.4616 4.7962C8.09035 4.64995 7.67035 4.6912 7.3366 4.9087C7.0066 5.12995 6.80035 5.5012 6.7966 5.8987L6.71035 10.7399L5.04535 16.0987C4.94785 16.4099 4.9816 16.7362 5.1316 17.0212C5.28535 17.3062 5.5366 17.5162 5.83285 17.6062Z" fill="#4DB6AC"/>
<path d="M8.69 4.1775C9.63875 4.1775 10.4075 3.40875 10.4075 2.46375C10.4075 1.51875 9.63875 0.75 8.69 0.75C7.74125 0.75 6.96875 1.51875 6.96875 2.46375C6.96875 3.40875 7.74125 4.1775 8.69 4.1775Z" fill="#4DB6AC"/>
<path d="M20.7691 14.0325H16.5391C16.3291 14.0325 16.1641 14.2012 16.1641 14.4075V22.875C16.1641 23.0812 16.3291 23.25 16.5391 23.25H20.7691C20.9753 23.25 21.1441 23.0812 21.1441 22.875V14.4075C21.1441 14.2012 20.9753 14.0325 20.7691 14.0325Z" fill="#4DB6AC"/>
<path d="M14.6148 16.2749H10.3848C10.1785 16.2749 10.0098 16.4437 10.0098 16.6499V22.8749C10.0098 23.0812 10.1785 23.2499 10.3848 23.2499H14.6148C14.8248 23.2499 14.9898 23.0812 14.9898 22.8749V16.6499C14.9898 16.4437 14.8248 16.2749 14.6148 16.2749Z" fill="#4DB6AC"/>
<path d="M8.46145 18.5212H4.23145C4.0252 18.5212 3.85645 18.6862 3.85645 18.8962V22.875C3.85645 23.0812 4.0252 23.25 4.23145 23.25H8.46145C8.67145 23.25 8.83645 23.0812 8.83645 22.875V18.8962C8.83645 18.6862 8.67145 18.5212 8.46145 18.5212Z" fill="#4DB6AC"/>
</svg>
