<svg width="140" height="48" viewBox="0 0 140 48" fill="none" xmlns="http://www.w3.org/2000/svg">
<path d="M2.91895 34.3336V47.7595H5.44847C7.68612 47.7595 7.8807 47.4677 7.39425 45.3273C6.61594 42.4086 7.19967 42.3113 10.4102 44.8408C12.1614 46.2029 14.3991 46.7866 17.5123 46.7866C25.8792 46.7866 30.1599 40.3655 30.1599 27.7179C30.1599 22.1724 29.9654 21.686 27.825 21.2968C25.5873 20.8104 25.4901 21.005 25.1009 28.399C24.9063 34.139 24.3226 36.5713 22.766 38.7116C20.0419 42.4086 15.2747 42.8951 12.0641 39.8791C10.7994 38.7116 9.7292 37.4469 9.7292 37.155C9.82648 36.8631 12.1614 34.82 15.0801 32.6797C17.9988 30.5393 20.3337 28.5935 20.3337 28.3017C20.3337 28.0098 19.75 27.0369 18.9717 25.9667C17.7069 24.2155 17.415 24.3128 12.8425 28.2044C10.1184 30.3447 7.8807 32.1932 7.68612 32.1932C7.49154 32.1932 7.49154 29.5664 7.58883 26.4532C7.97799 20.8104 7.8807 20.7131 5.44847 20.9077L2.91895 21.005V34.3336Z" fill="#F57C00"/>
<path d="M10.7018 7.15123C5.35091 14.1561 4.08615 15.3235 2.23765 14.8371C0.486446 14.4479 0 14.7398 0 16.2964C0 17.9503 0.681025 18.2422 3.69699 18.2422C7.10212 18.2422 7.78314 17.7558 12.1612 11.9184C14.788 8.41599 17.2202 5.98376 17.6094 6.37292C17.9012 6.76207 20.1389 9.68075 22.4738 12.8913C25.9762 17.6585 27.3383 18.8259 29.9651 19.0205C32.5919 19.3124 33.0784 19.0205 33.0784 17.3666C33.0784 15.9073 32.3973 15.3235 30.938 15.3235C29.2841 15.3235 27.5329 13.5723 24.5169 9.19431C16.5392 -2.48041 17.9012 -2.28583 10.7018 7.15123Z" fill="#F57C00"/>
<path d="M38.0127 24.3908C38.0127 29.2553 38.4019 32.6604 38.9856 32.6604C39.5693 32.6604 39.9585 31.2011 39.9585 29.3526C39.9585 24.4881 41.3205 24.3908 44.2392 28.7688C46.0877 31.5902 47.4498 32.6604 49.201 32.6604C51.5359 32.6604 51.6332 32.4658 51.6332 26.3366C51.6332 18.3589 49.882 17.9697 49.4928 25.9474L49.201 31.8821L46.185 27.5041L43.0717 23.2233L45.504 20.1101C47.4498 17.6779 48.2281 17.2887 49.2983 18.067C49.9793 18.748 51.0495 18.9426 51.6332 18.5535C53.2871 17.4833 51.9251 16.4131 48.7145 16.3158C46.2823 16.2185 45.2121 16.9968 42.8772 20.2074L39.9585 24.1962V20.2074C39.9585 17.9697 39.5693 16.1212 38.9856 16.1212C38.4019 16.1212 38.0127 19.5263 38.0127 24.3908Z" fill="#333333"/>
<path d="M61.0959 18.2584C61.0959 20.8852 60.804 21.1771 58.7609 20.5934C55.8423 19.9123 52.3398 23.0256 52.3398 26.3334C52.3398 30.6142 54.8694 32.7545 59.6365 32.6572L64.0146 32.5599V23.9985C64.0146 16.9937 63.7227 15.3397 62.5552 15.3397C61.5823 15.3397 61.0959 16.3126 61.0959 18.2584ZM59.9284 23.0256C60.7067 23.512 61.0959 25.166 60.9013 27.1117C60.7067 29.6413 60.123 30.5169 58.4691 30.7114C54.7721 31.2952 53.3127 25.166 56.6206 22.9283C57.9826 21.9554 58.3718 21.9554 59.9284 23.0256Z" fill="#333333"/>
<path d="M74.4866 15.9251C71.3734 16.5088 68.3574 20.7895 68.3574 24.6811C68.3574 29.4483 71.9571 32.7561 77.1135 32.7561C79.2538 32.7561 81.005 32.2697 81.005 31.7832C81.005 31.1995 79.5457 30.8103 77.6972 30.8103C72.6382 30.8103 70.6924 28.1835 71.2761 22.5407C71.568 19.3302 73.2219 18.1627 77.2107 18.1627C79.3511 18.1627 81.005 17.6763 81.005 17.1898C81.005 16.6061 80.6159 16.2169 80.1294 16.2169C79.643 16.2169 78.6701 16.0223 77.8918 15.8278C77.2107 15.6332 75.6541 15.7305 74.4866 15.9251Z" fill="#333333"/>
<path d="M82.505 20.7691C81.5321 21.742 81.7267 27.3847 82.7969 30.2061C83.7698 32.9302 87.3695 33.6112 89.4126 31.5682C90.2882 30.6926 90.5801 30.6926 90.5801 31.5682C90.5801 32.2492 91.0665 32.7356 91.5529 32.7356C92.234 32.7356 92.5258 30.4007 92.3313 26.6064C91.9421 19.5043 90.2882 18.9206 89.6072 25.6335C89.218 29.5251 88.8288 30.3034 87.1749 30.3034C85.521 30.3034 85.2291 29.5251 84.9373 25.1471C84.6454 20.3799 83.9644 19.2124 82.505 20.7691Z" fill="#333333"/>
<path d="M93.2588 23.9862V32.5476L97.3449 32.7422C102.112 32.9368 104.447 31.0883 104.447 27.294C104.447 22.0404 99.8745 18.4407 96.8585 21.4566C95.9829 22.3322 95.691 21.8458 95.691 19.0244C95.691 16.7868 95.2046 15.4247 94.5235 15.4247C93.5507 15.4247 93.2588 17.7596 93.2588 23.9862ZM101.528 23.597C102.988 25.4455 102.404 29.0452 100.458 30.31C98.026 31.8666 95.691 30.4073 95.691 27.294C95.691 22.8187 99.0961 20.6783 101.528 23.597Z" fill="#333333"/>
<path d="M105.315 24.0001C105.315 29.1564 105.705 32.7561 106.288 32.7561C106.872 32.7561 107.261 32.2697 107.261 31.6859C107.261 30.9076 107.65 30.9076 108.623 31.7832C110.861 33.5344 114.363 32.5615 115.823 29.6428C118.449 24.0974 114.071 18.4546 109.207 21.0814C107.067 22.2489 107.067 22.1516 107.65 18.7464C108.234 15.9251 108.04 15.244 106.775 15.244C105.607 15.244 105.315 16.7034 105.315 24.0001ZM112.515 22.638C114.655 23.4163 114.655 29.6428 112.515 30.5185C108.721 31.9778 105.802 26.6269 108.721 23.6109C110.569 21.8597 110.472 21.8597 112.515 22.638Z" fill="#333333"/>
<path d="M117.48 26.4323C117.48 30.032 117.87 32.7561 118.453 32.7561C119.037 32.7561 119.426 30.032 119.426 26.4323C119.426 22.8326 119.037 20.1085 118.453 20.1085C117.87 20.1085 117.48 22.8326 117.48 26.4323Z" fill="#333333"/>
<path d="M122.182 22.0891C119.749 24.5214 119.652 29.094 121.987 31.137C123.933 32.8882 129.965 33.3747 129.965 31.8181C129.965 31.2343 128.7 30.8452 127.241 30.8452C124.614 30.8452 122.182 29.3858 122.182 27.7319C122.182 27.3428 124.225 26.9536 126.657 26.9536C130.743 26.9536 131.035 26.8563 130.354 24.7159C128.895 19.7542 125.587 18.684 122.182 22.0891ZM128.019 23.5485C128.7 24.3268 129.089 25.0078 128.895 25.1051C122.571 26.1753 120.917 25.6888 123.349 23.2566C124.906 21.7 126.56 21.7973 128.019 23.5485Z" fill="#333333"/>
<path d="M133.063 21.6284C130.923 23.8661 131.118 24.6444 134.426 27.0766C137.636 29.5089 137.441 30.8709 133.842 30.8709C132.577 30.8709 131.507 31.3574 131.507 31.9411C131.507 33.595 137.539 32.5248 138.706 30.579C139.582 29.1197 139.193 28.3414 136.371 26.0064C133.647 23.7688 133.258 23.0878 134.523 22.6013C135.398 22.3094 136.566 22.1149 137.15 22.3094C137.636 22.504 138.317 22.1149 138.512 21.6284C138.998 19.9745 134.717 19.9745 133.063 21.6284Z" fill="#333333"/>
</svg>
