<svg width="140" height="48" viewBox="0 0 140 48" fill="none" xmlns="http://www.w3.org/2000/svg">
<path d="M2.91895 34.3336V47.7595H5.44847C7.68612 47.7595 7.8807 47.4677 7.39425 45.3273C6.61594 42.4086 7.19967 42.3113 10.4102 44.8408C12.1614 46.2029 14.3991 46.7866 17.5123 46.7866C25.8792 46.7866 30.1599 40.3655 30.1599 27.7179C30.1599 22.1724 29.9654 21.686 27.825 21.2968C25.5873 20.8104 25.4901 21.005 25.1009 28.399C24.9063 34.139 24.3226 36.5713 22.766 38.7116C20.0419 42.4086 15.2747 42.8951 12.0641 39.8791C10.7994 38.7116 9.7292 37.4469 9.7292 37.155C9.82648 36.8631 12.1614 34.82 15.0801 32.6797C17.9988 30.5393 20.3337 28.5935 20.3337 28.3017C20.3337 28.0098 19.75 27.0369 18.9717 25.9667C17.7069 24.2155 17.415 24.3128 12.8425 28.2044C10.1184 30.3447 7.8807 32.1932 7.68612 32.1932C7.49154 32.1932 7.49154 29.5664 7.58883 26.4532C7.97799 20.8104 7.8807 20.7131 5.44847 20.9077L2.91895 21.005V34.3336Z" fill="#FFA726"/>
<path d="M10.7018 7.15123C5.35091 14.1561 4.08615 15.3235 2.23765 14.8371C0.486446 14.4479 0 14.7398 0 16.2964C0 17.9503 0.681025 18.2422 3.69699 18.2422C7.10212 18.2422 7.78314 17.7558 12.1612 11.9184C14.788 8.41599 17.2202 5.98376 17.6094 6.37292C17.9012 6.76207 20.1389 9.68075 22.4738 12.8913C25.9762 17.6585 27.3383 18.8259 29.9651 19.0205C32.5919 19.3124 33.0784 19.0205 33.0784 17.3666C33.0784 15.9073 32.3973 15.3235 30.938 15.3235C29.2841 15.3235 27.5329 13.5723 24.5169 9.19431C16.5392 -2.48041 17.9012 -2.28583 10.7018 7.15123Z" fill="#FFA726"/>
<path d="M38.0117 24.3908C38.0117 29.2553 38.4009 32.6604 38.9846 32.6604C39.5683 32.6604 39.9575 31.2011 39.9575 29.3526C39.9575 24.4881 41.3196 24.3908 44.2382 28.7688C46.0867 31.5902 47.4488 32.6604 49.2 32.6604C51.5349 32.6604 51.6322 32.4658 51.6322 26.3366C51.6322 18.3589 49.881 17.9697 49.4919 25.9474L49.2 31.8821L46.184 27.5041L43.0708 23.2233L45.503 20.1101C47.4488 17.6779 48.2271 17.2887 49.2973 18.067C49.9783 18.748 51.0485 18.9426 51.6322 18.5535C53.2861 17.4833 51.9241 16.4131 48.7135 16.3158C46.2813 16.2185 45.2111 16.9968 42.8762 20.2074L39.9575 24.1962V20.2074C39.9575 17.9697 39.5683 16.1212 38.9846 16.1212C38.4009 16.1212 38.0117 19.5263 38.0117 24.3908Z" fill="#FAFAFA"/>
<path d="M61.0949 18.2584C61.0949 20.8852 60.803 21.1771 58.76 20.5934C55.8413 19.9123 52.3389 23.0256 52.3389 26.3334C52.3389 30.6142 54.8684 32.7545 59.6356 32.6572L64.0136 32.5599V23.9985C64.0136 16.9937 63.7217 15.3397 62.5542 15.3397C61.5813 15.3397 61.0949 16.3126 61.0949 18.2584ZM59.9274 23.0256C60.7057 23.512 61.0949 25.166 60.9003 27.1117C60.7057 29.6413 60.122 30.5169 58.4681 30.7114C54.7711 31.2952 53.3118 25.166 56.6196 22.9283C57.9816 21.9554 58.3708 21.9554 59.9274 23.0256Z" fill="#FAFAFA"/>
<path d="M74.4857 15.9251C71.3724 16.5088 68.3564 20.7895 68.3564 24.6811C68.3564 29.4483 71.9561 32.7561 77.1125 32.7561C79.2528 32.7561 81.0041 32.2697 81.0041 31.7832C81.0041 31.1995 79.5447 30.8103 77.6962 30.8103C72.6372 30.8103 70.6914 28.1835 71.2751 22.5407C71.567 19.3302 73.2209 18.1627 77.2098 18.1627C79.3501 18.1627 81.0041 17.6763 81.0041 17.1898C81.0041 16.6061 80.6149 16.2169 80.1284 16.2169C79.642 16.2169 78.6691 16.0223 77.8908 15.8278C77.2098 15.6332 75.6531 15.7305 74.4857 15.9251Z" fill="#FAFAFA"/>
<path d="M82.5041 20.7691C81.5312 21.742 81.7257 27.3847 82.7959 30.2061C83.7688 32.9302 87.3685 33.6112 89.4116 31.5682C90.2872 30.6926 90.5791 30.6926 90.5791 31.5682C90.5791 32.2492 91.0655 32.7356 91.552 32.7356C92.233 32.7356 92.5249 30.4007 92.3303 26.6064C91.9411 19.5043 90.2872 18.9206 89.6062 25.6335C89.217 29.5251 88.8279 30.3034 87.1739 30.3034C85.52 30.3034 85.2282 29.5251 84.9363 25.1471C84.6444 20.3799 83.9634 19.2124 82.5041 20.7691Z" fill="#FAFAFA"/>
<path d="M93.2578 23.9862V32.5476L97.344 32.7422C102.111 32.9368 104.446 31.0883 104.446 27.294C104.446 22.0404 99.8735 18.4407 96.8575 21.4566C95.9819 22.3322 95.69 21.8458 95.69 19.0244C95.69 16.7868 95.2036 15.4247 94.5226 15.4247C93.5497 15.4247 93.2578 17.7596 93.2578 23.9862ZM101.527 23.597C102.987 25.4455 102.403 29.0452 100.457 30.31C98.025 31.8666 95.69 30.4073 95.69 27.294C95.69 22.8187 99.0952 20.6783 101.527 23.597Z" fill="#FAFAFA"/>
<path d="M105.314 24.0001C105.314 29.1564 105.704 32.7561 106.287 32.7561C106.871 32.7561 107.26 32.2697 107.26 31.6859C107.26 30.9076 107.649 30.9076 108.622 31.7832C110.86 33.5344 114.362 32.5615 115.822 29.6428C118.449 24.0974 114.07 18.4546 109.206 21.0814C107.066 22.2489 107.066 22.1516 107.649 18.7464C108.233 15.9251 108.039 15.244 106.774 15.244C105.606 15.244 105.314 16.7034 105.314 24.0001ZM112.514 22.638C114.654 23.4163 114.654 29.6428 112.514 30.5185C108.72 31.9778 105.801 26.6269 108.72 23.6109C110.568 21.8597 110.471 21.8597 112.514 22.638Z" fill="#FAFAFA"/>
<path d="M117.479 26.4323C117.479 30.032 117.869 32.7561 118.452 32.7561C119.036 32.7561 119.425 30.032 119.425 26.4323C119.425 22.8326 119.036 20.1085 118.452 20.1085C117.869 20.1085 117.479 22.8326 117.479 26.4323Z" fill="#FAFAFA"/>
<path d="M122.181 22.0891C119.748 24.5214 119.651 29.094 121.986 31.137C123.932 32.8882 129.964 33.3747 129.964 31.8181C129.964 31.2343 128.699 30.8452 127.24 30.8452C124.613 30.8452 122.181 29.3858 122.181 27.7319C122.181 27.3428 124.224 26.9536 126.656 26.9536C130.742 26.9536 131.034 26.8563 130.353 24.7159C128.894 19.7542 125.586 18.684 122.181 22.0891ZM128.018 23.5485C128.699 24.3268 129.088 25.0078 128.894 25.1051C122.57 26.1753 120.916 25.6888 123.348 23.2566C124.905 21.7 126.559 21.7973 128.018 23.5485Z" fill="#FAFAFA"/>
<path d="M133.062 21.6284C130.922 23.8661 131.117 24.6444 134.425 27.0766C137.635 29.5089 137.441 30.8709 133.841 30.8709C132.576 30.8709 131.506 31.3574 131.506 31.9411C131.506 33.595 137.538 32.5248 138.705 30.579C139.581 29.1197 139.192 28.3414 136.37 26.0064C133.646 23.7688 133.257 23.0878 134.522 22.6013C135.397 22.3094 136.565 22.1149 137.149 22.3094C137.635 22.504 138.316 22.1149 138.511 21.6284C138.997 19.9745 134.716 19.9745 133.062 21.6284Z" fill="#FAFAFA"/>
</svg>
