<svg width="24" height="25" viewBox="0 0 24 25" fill="none" xmlns="http://www.w3.org/2000/svg">
<path d="M16 4.94385C16 6.18385 14.99 7.19385 13.75 7.19385H10.25C9.63 7.19385 9.07 6.94385 8.66 6.53385C8.25 6.12385 8 5.56385 8 4.94385C8 3.70385 9.01 2.69385 10.25 2.69385H13.75C14.37 2.69385 14.93 2.94385 15.34 3.35385C15.75 3.76385 16 4.32385 16 4.94385Z" fill="#4DB6AC"/>
<path d="M18.83 5.72405C18.6 5.53405 18.34 5.38405 18.06 5.27405C17.77 5.16405 17.48 5.39405 17.42 5.69405C17.08 7.40405 15.57 8.69405 13.75 8.69405H10.25C9.25 8.69405 8.31 8.30405 7.6 7.59405C7.08 7.07405 6.72 6.41405 6.58 5.70405C6.52 5.40405 6.22 5.16405 5.93 5.28405C4.77 5.75405 4 6.81405 4 8.94405V18.6941C4 21.6941 5.79 22.6941 8 22.6941H16C18.21 22.6941 20 21.6941 20 18.6941V8.94405C20 7.31405 19.55 6.31405 18.83 5.72405ZM8 12.9441H12C12.41 12.9441 12.75 13.2841 12.75 13.6941C12.75 14.1041 12.41 14.4441 12 14.4441H8C7.59 14.4441 7.25 14.1041 7.25 13.6941C7.25 13.2841 7.59 12.9441 8 12.9441ZM16 18.4441H8C7.59 18.4441 7.25 18.1041 7.25 17.6941C7.25 17.2841 7.59 16.9441 8 16.9441H16C16.41 16.9441 16.75 17.2841 16.75 17.6941C16.75 18.1041 16.41 18.4441 16 18.4441Z" fill="#4DB6AC"/>
</svg>
