<svg width="273" height="289" viewBox="0 0 273 289" fill="none" xmlns="http://www.w3.org/2000/svg">
<g opacity="0.3" clip-path="url(#clip0_23_558)">
<path d="M124.448 150.886C122.547 151.663 120.375 150.751 119.596 148.848L112.225 130.837C104.815 112.731 99.8017 93.7124 97.3239 74.3087L96.7416 69.7473C95.4431 59.5792 86.1088 52.2332 75.9337 53.3725C75.2608 53.448 74.8591 53.8428 74.6795 54.0715C74.5 54.3002 74.2118 54.7843 74.2977 55.4568L77.4998 80.5322C78.2167 86.1468 79.1666 91.8029 80.3226 97.3435C80.7426 99.3566 79.4531 101.328 77.4428 101.746C75.432 102.164 73.4616 100.872 73.0418 98.8589C71.8462 93.1279 70.864 87.277 70.1223 81.4694L66.9201 56.3939C66.602 53.9016 67.2803 51.4419 68.8298 49.4682C70.3796 47.4938 72.6062 46.2527 75.1002 45.9736C82.0039 45.2008 88.8155 47.1435 94.2801 51.4437C99.7446 55.7439 103.239 61.9116 104.12 68.8112L104.703 73.3731C107.098 92.1315 111.945 110.518 119.108 128.021L126.479 146.032C127.258 147.934 126.348 150.108 124.448 150.886Z" fill="#64B5F6"/>
<path d="M136.783 139.281C136.488 139.401 136.173 139.486 135.842 139.528C133.804 139.786 131.942 138.343 131.681 136.303C129.107 116.147 130.067 95.8792 134.535 76.0639C135.63 71.2079 134.767 66.2152 132.105 62.0061C129.444 57.7969 125.305 54.8782 120.45 53.7874C119.47 53.5671 118.489 54.2007 118.264 55.1998L113.498 76.3396C111.678 84.4153 110.452 92.6974 109.857 100.956C109.709 103.006 107.929 104.547 105.88 104.397C103.832 104.247 102.291 102.463 102.439 100.413C103.061 91.7842 104.34 83.1315 106.243 74.6937L111.009 53.5539C112.135 48.559 117.098 45.4049 122.072 46.5228C128.869 48.05 134.664 52.1365 138.389 58.0292C142.115 63.9222 143.323 70.9118 141.79 77.71C137.514 96.6757 136.595 116.074 139.059 135.366C139.277 137.074 138.303 138.659 136.783 139.281Z" fill="#64B5F6"/>
<path d="M193.134 245.608C193.099 245.623 193.064 245.637 193.029 245.651L188.769 247.387C179.618 251.116 170.007 252.941 160.202 252.81C150.734 252.684 141.487 250.749 132.717 247.058C123.948 243.367 116.095 238.106 109.378 231.419C102.421 224.495 96.9938 216.341 93.2451 207.182L51.7087 105.705C49.871 101.193 52.0361 96.03 56.5327 94.1897C63.0854 91.508 70.2917 91.5421 76.8242 94.2858C83.3567 97.0295 88.4332 102.154 91.1187 108.716L112.798 161.688C113.577 163.591 112.667 165.764 110.767 166.542C108.866 167.32 106.694 166.407 105.915 164.504L84.2365 111.533C82.3043 106.812 78.6523 103.125 73.9522 101.151C69.2528 99.1775 64.0681 99.1532 59.3537 101.083C58.646 101.372 58.3049 102.185 58.5941 102.894L100.128 204.366C113.881 237.966 152.385 254.171 185.959 240.49L190.219 238.754L190.313 238.716C206.144 232.237 218.666 220.051 225.582 204.39C234.584 184.004 234.887 160.478 226.412 139.844C224.416 134.982 222.597 130.548 221.282 127.338C220.895 126.393 219.808 125.94 218.858 126.329L217.342 126.949C208.69 130.49 204.537 140.419 208.082 149.082C211.536 157.521 207.49 167.191 199.063 170.64L192.837 173.188C185.713 176.104 177.879 176.067 170.777 173.084C163.676 170.101 158.156 164.529 155.237 157.396C152.317 150.262 152.347 142.42 155.32 135.314C158.292 128.208 163.853 122.689 170.977 119.774C177.336 117.171 184.488 117.488 190.599 120.643L193.228 122C197.34 124.123 202.017 124.48 206.399 123.008C210.782 121.535 214.293 118.425 216.287 114.251C216.716 113.353 216.37 112.282 215.501 111.813C211.809 109.819 206.373 106.884 200.852 103.903C188.478 97.2209 173.923 96.4405 160.92 101.762C150.885 105.869 142.544 113.388 137.432 122.932C136.462 124.744 134.208 125.424 132.397 124.451C130.587 123.478 129.905 121.221 130.876 119.409C133.787 113.974 137.561 109.119 142.094 104.981C146.786 100.698 152.171 97.2961 158.099 94.8697C165.465 91.8552 173.561 90.4872 181.512 90.9136C189.462 91.3399 197.369 93.566 204.379 97.3508C209.899 100.332 215.334 103.267 219.027 105.26C223.397 107.62 225.142 112.982 222.998 117.469C222.73 118.03 222.442 118.579 222.136 119.114C224.77 119.877 227.046 121.79 228.164 124.519C229.479 127.728 231.297 132.16 233.292 137.02C235.592 142.619 237.329 148.472 238.457 154.416C239.573 160.301 240.1 166.322 240.023 172.313C239.946 178.304 239.265 184.308 237.998 190.161C236.718 196.071 234.83 201.874 232.387 207.407C228.568 216.052 223.198 223.775 216.422 230.358C209.673 236.915 201.839 242.046 193.134 245.608ZM173.797 126.666C162.886 131.131 157.647 143.653 162.119 154.579C166.59 165.505 179.105 170.762 190.016 166.296L196.242 163.748C200.873 161.853 203.097 156.537 201.199 151.899C198.728 145.861 198.753 139.224 201.269 133.21C201.54 132.562 201.837 131.929 202.157 131.313C201.22 131.358 200.278 131.347 199.333 131.283C196.008 131.055 192.809 130.158 189.823 128.616L187.193 127.259C183.021 125.105 178.138 124.889 173.797 126.666Z" fill="#64B5F6"/>
</g>
<defs>
<clipPath id="clip0_23_558">
<rect width="199.472" height="229.827" fill="white" transform="translate(0.5 76.1162) rotate(-22.2572)"/>
</clipPath>
</defs>
</svg>
