<svg width="24" height="25" viewBox="0 0 24 25" fill="none" xmlns="http://www.w3.org/2000/svg">
<g clip-path="url(#clip0_229_5670)">
<path d="M13.9883 18.4265H9.48821C9.28843 18.4265 9.11335 18.502 8.96335 18.6517C8.81322 18.8018 8.73828 18.9767 8.73828 19.1767V23.677C8.73828 23.8771 8.81348 24.0521 8.96335 24.202C9.11335 24.3517 9.28823 24.427 9.48821 24.427H13.9883C14.1881 24.427 14.3636 24.3519 14.5131 24.202C14.6634 24.0521 14.7385 23.8771 14.7385 23.677V19.1767C14.7385 18.9767 14.6636 18.8018 14.5131 18.6517C14.3636 18.5016 14.1881 18.4265 13.9883 18.4265Z" fill="#26A69A"/>
<path d="M19.8944 4.95528C19.3817 4.01102 18.7194 3.21453 17.9067 2.56436C17.0945 1.91445 16.1814 1.39543 15.1691 1.00808C14.1566 0.620871 13.1504 0.427002 12.1502 0.427002C8.35036 0.427002 5.45039 2.08954 3.45023 5.41467C3.35034 5.57708 3.31586 5.75204 3.34705 5.9396C3.37845 6.1269 3.47532 6.28321 3.63779 6.40819L6.71291 8.75215C6.87538 8.85198 7.03169 8.90196 7.18175 8.90196C7.40682 8.90196 7.60042 8.8018 7.7631 8.60183C8.66296 7.47696 9.33185 6.75823 9.76931 6.44555C10.3069 6.08317 10.9817 5.90204 11.7942 5.90204C12.5567 5.90204 13.2284 6.10208 13.8099 6.50177C14.3911 6.90186 14.6815 7.3644 14.6815 7.8894C14.6815 8.47665 14.5255 8.95187 14.2129 9.31439C13.9005 9.67678 13.3753 10.0266 12.6376 10.3643C11.6629 10.8017 10.7687 11.4799 9.95661 12.3987C9.14389 13.3175 8.73783 14.2957 8.73783 15.3331V16.1768C8.73783 16.4146 8.80311 16.6488 8.93459 16.8801C9.06594 17.1115 9.2252 17.227 9.41283 17.227H13.9129C14.1129 17.227 14.2877 17.1304 14.4379 16.936C14.5875 16.7428 14.6629 16.5396 14.6629 16.3274C14.6629 16.015 14.8347 15.5958 15.1782 15.071C15.522 14.546 15.95 14.1394 16.4629 13.8518C16.9502 13.5769 17.3311 13.3553 17.6064 13.1863C17.8819 13.0178 18.241 12.7453 18.6849 12.3706C19.1286 11.9955 19.4724 11.6235 19.7159 11.2549C19.9597 10.8862 20.1786 10.408 20.3724 9.82034C20.5665 9.23289 20.6632 8.60156 20.6632 7.92663C20.663 6.88912 20.4066 5.89856 19.8944 4.95528Z" fill="#26A69A"/>
</g>
<defs>
<clipPath id="clip0_229_5670">
<rect width="24" height="24" fill="white" transform="translate(0 0.427002)"/>
</clipPath>
</defs>
</svg>
