<svg width="24" height="25" viewBox="0 0 24 25" fill="none" xmlns="http://www.w3.org/2000/svg">
<path d="M15 20.1826C14.619 20.3356 14.2253 20.4638 13.818 20.5576L13.653 22.7071C13.632 22.9816 13.4025 23.1938 13.1273 23.1938H10.872C10.5968 23.1938 10.368 22.9816 10.347 22.7078L10.182 20.5583C9.2985 20.3551 8.47275 20.0063 7.7265 19.5391L6.08775 20.9438C5.8785 21.1231 5.56725 21.1111 5.37225 20.9161L3.77775 19.3216C3.58275 19.1266 3.5715 18.8153 3.75 18.6061L5.15475 16.9673C4.68825 16.2211 4.3395 15.3953 4.1355 14.5118L1.986 14.3468C1.71225 14.3258 1.5 14.0963 1.5 13.8211V11.5658C1.5 11.2906 1.71225 11.0618 1.986 11.0408L4.1355 10.8758C4.33875 9.99235 4.6875 9.1666 5.15475 8.42035L3.75075 6.7816C3.5715 6.5731 3.5835 6.2611 3.77775 6.06685L5.37225 4.47235C5.5665 4.2781 5.8785 4.2661 6.08775 4.4446L7.7265 5.84935C8.47275 5.38285 9.2985 5.0341 10.182 4.8301L10.347 2.6806C10.368 2.4061 10.5975 2.19385 10.8727 2.19385H13.128C13.4032 2.19385 13.632 2.4061 13.653 2.67985L13.6627 2.8051C13.0807 3.69835 12.75 4.75135 12.75 5.8651C12.75 6.7666 12.963 7.6306 13.3522 8.4016C12.9255 8.2666 12.471 8.19385 12 8.19385C9.5145 8.19385 7.5 10.2083 7.5 12.6938C7.5 15.1793 9.5145 17.1938 12 17.1938C13.1543 17.1938 14.2035 16.7558 15 16.0411V20.1826Z" fill="#4DB6AC"/>
<path d="M20.25 9.53569V21.3189C20.25 22.3547 19.4107 23.1939 18.375 23.1939C17.3393 23.1939 16.5 22.3547 16.5 21.3189V9.53569C15.165 8.85244 14.25 7.46719 14.25 5.86444C14.25 4.31569 15.105 2.96869 16.368 2.26369C16.4257 2.23219 16.5 2.27719 16.5 2.34319V6.69394L18.375 7.44394L20.25 6.69394V2.34319C20.25 2.27719 20.3243 2.23219 20.382 2.26444C21.645 2.96944 22.5 4.31569 22.5 5.86519C22.5 7.46719 21.585 8.85319 20.25 9.53569Z" fill="#4DB6AC"/>
</svg>
