<svg width="33" height="33" viewBox="0 0 33 33" fill="none" xmlns="http://www.w3.org/2000/svg">
<g opacity="0.6" clip-path="url(#clip0_23_371)">
<path d="M5.49502 15.3738C5.01002 15.3738 4.58802 15.0468 4.51902 14.5518C4.50202 14.4378 4.49902 14.3068 4.49902 14.1938C4.49902 12.5978 5.12002 11.0908 6.24802 9.95085C7.39602 8.81485 8.90302 8.19385 10.499 8.19385H16.949C17.502 8.19385 17.949 8.64185 17.949 9.19385C17.949 9.74585 17.502 10.1938 16.949 10.1938H10.499C9.43402 10.1938 8.42602 10.6098 7.66202 11.3648C6.91502 12.1198 6.49902 13.1278 6.49902 14.1938C6.57502 14.7408 6.19302 15.2868 5.64602 15.3628C5.59402 15.3698 5.54402 15.3738 5.49502 15.3738Z" fill="#BA68C8"/>
<path d="M23.4998 30.1938H14.7998C14.2468 30.1938 13.7998 29.7458 13.7998 29.1938C13.7998 28.6418 14.2468 28.1938 14.7998 28.1938H23.4998C25.7058 28.1938 27.4998 26.3998 27.4998 24.1938C27.4998 23.1278 27.0838 22.1198 26.3288 21.3568C25.5728 20.6098 24.5648 20.1938 23.4998 20.1938H15.5598C15.0068 20.1938 14.5598 19.7458 14.5598 19.1938C14.5598 18.6418 15.0068 18.1938 15.5598 18.1938H23.4998C25.0958 18.1938 26.6028 18.8148 27.7428 19.9428C28.8788 21.0908 29.4998 22.5978 29.4998 24.1938C29.4998 27.5028 26.8088 30.1938 23.4998 30.1938Z" fill="#BA68C8"/>
<path d="M25.5 0.193848C22.191 0.193848 19.5 2.88485 19.5 6.19385C19.5 10.4858 23.712 15.1938 25.5 15.1938C27.288 15.1938 31.5 10.4858 31.5 6.19385C31.5 2.88485 28.809 0.193848 25.5 0.193848ZM25.5 8.19385C24.395 8.19385 23.5 7.29885 23.5 6.19385C23.5 5.08885 24.395 4.19385 25.5 4.19385C26.605 4.19385 27.5 5.08885 27.5 6.19385C27.5 7.29885 26.605 8.19385 25.5 8.19385Z" fill="#BA68C8"/>
<path d="M7.5 17.1938C4.191 17.1938 1.5 19.8848 1.5 23.1938C1.5 27.4858 5.712 32.1938 7.5 32.1938C9.288 32.1938 13.5 27.4858 13.5 23.1938C13.5 19.8848 10.809 17.1938 7.5 17.1938ZM7.5 25.1938C6.395 25.1938 5.5 24.2988 5.5 23.1938C5.5 22.0888 6.395 21.1938 7.5 21.1938C8.605 21.1938 9.5 22.0888 9.5 23.1938C9.5 24.2988 8.605 25.1938 7.5 25.1938Z" fill="#BA68C8"/>
</g>
<defs>
<clipPath id="clip0_23_371">
<rect width="32" height="32" fill="white" transform="translate(0.5 0.193848)"/>
</clipPath>
</defs>
</svg>
