<svg width="25" height="25" viewBox="0 0 25 25" fill="none" xmlns="http://www.w3.org/2000/svg">
<g opacity="0.7">
<path d="M20.5 11.5C20.5 16.47 16.47 20.5 11.5 20.5C6.53 20.5 2.5 16.47 2.5 11.5C2.5 6.53 6.53 2.5 11.5 2.5" stroke="#26A69A" stroke-width="1.5" stroke-linecap="round" stroke-linejoin="round"/>
<path d="M13.9999 6.63008C13.6499 5.53008 14.0599 4.16008 15.2199 3.79008C15.8299 3.59008 16.5799 3.76008 17.0099 4.35008C17.4099 3.74008 18.1899 3.60008 18.7899 3.79008C19.9499 4.16008 20.3599 5.53008 20.0099 6.63008C19.4599 8.38008 17.5399 9.29008 17.0099 9.29008C16.4699 9.29008 14.5699 8.40008 13.9999 6.63008Z" stroke="#26A69A" stroke-width="1.5" stroke-linecap="round" stroke-linejoin="round"/>
<path d="M19.4304 21.1898C19.9604 22.7898 21.1704 22.9498 22.1004 21.5498C22.9504 20.2698 22.3904 19.2198 20.8504 19.2198C19.7104 19.2098 19.0704 20.0998 19.4304 21.1898Z" stroke="#26A69A" stroke-width="1.5" stroke-linecap="round" stroke-linejoin="round"/>
</g>
</svg>
