<svg width="134" height="133" viewBox="0 0 134 133" fill="none" xmlns="http://www.w3.org/2000/svg">
<path fill-rule="evenodd" clip-rule="evenodd" d="M84.7336 75.3546C83.4503 78.803 81.593 81.964 79.1837 84.7578C77.6252 86.564 75.9492 88.2697 74.3273 90.0203C74.0521 90.3164 73.7369 90.589 73.5177 90.9232C72.9955 91.7162 73.1297 92.6246 73.8101 93.2764C74.4732 93.9124 75.3841 93.9555 76.1676 93.3705C76.4107 93.1886 76.6284 92.971 76.8388 92.751C78.141 91.3952 79.4462 90.0443 80.7311 88.6727C83.8954 85.2974 86.3263 81.434 88.0374 77.1561C89.5844 73.2899 90.3382 69.2499 89.8479 65.066C89.2222 59.7244 87.0467 55.1836 83.0219 51.5016C79.4636 48.2439 75.402 46.1531 70.646 45.3931C70.3509 45.3453 70.0632 45.2595 69.7698 45.1902C69.4215 44.3572 69.1122 43.5533 68.7557 42.7724C67.1171 39.19 64.53 36.3302 61.6934 33.687C58.8986 31.0812 55.7382 28.9478 52.5676 26.8336C52.3156 26.6664 52.0539 26.4961 51.7723 26.3941C50.9693 26.107 50.1099 26.4159 49.6324 27.1261C49.2073 27.76 49.2346 28.6492 49.7564 29.2514C50.017 29.553 50.351 29.8005 50.6792 30.0323C51.965 30.9415 53.2628 31.8316 54.553 32.7326C57.9486 35.1051 60.9791 37.8621 63.4881 41.1746C64.3511 42.3137 65.039 43.5433 65.6605 45.062C64.9186 45.1592 64.3744 45.2463 63.8274 45.3019C60.4604 45.6438 57.4487 46.9247 54.6632 48.7887C52.6463 50.1363 51.2184 51.9425 50.6216 54.3207C50.0428 56.6245 50.6195 58.6856 52.2782 60.3483C53.6386 61.7128 55.3545 62.5419 57.2919 62.6909C61.895 63.0437 65.663 61.463 68.3905 57.6572C69.8268 55.6536 70.4622 53.3805 70.5298 50.9327C70.5441 50.3912 70.5678 49.8497 70.5874 49.3419C70.7928 49.2981 70.8944 49.2466 70.9843 49.2613C71.2861 49.3098 71.5852 49.3703 71.8798 49.4453C74.9369 50.2325 77.6087 51.7038 79.9992 53.7785C83.025 56.4048 84.9765 59.6209 85.8381 63.5295C86.7342 67.5954 86.1532 71.5357 84.7336 75.3546ZM61.9178 58.3312C60.5896 58.8822 59.212 59.1569 57.7669 58.9975C56.837 58.8954 55.9982 58.57 55.2655 57.9931C54.224 57.1712 53.9275 56.1492 54.3458 54.8913C54.7436 53.6955 55.4852 52.7503 56.506 52.0351C59.357 50.0398 62.5181 48.9473 66.0095 48.8607C66.2031 48.8541 66.3992 48.9005 66.5789 48.9209C67.5165 52.7378 65.464 56.8601 61.9178 58.3312Z" fill="#26A69A"/>
<path fill-rule="evenodd" clip-rule="evenodd" d="M88.8563 100.077C88.9891 99.196 88.4752 98.3411 87.6026 98.0587C87.2188 97.9357 86.8088 97.888 86.4083 97.8299C83.5922 97.4226 80.7723 97.0496 77.9623 96.6056C76.3091 96.3435 74.6689 95.988 73.0304 95.6424C72.5365 95.5396 72.035 95.3896 71.5918 95.158C69.7337 94.187 69.7396 93.642 70.3136 92.1455C70.8027 90.8712 71.3777 89.6161 72.0492 88.4255C73.1947 86.3938 74.4458 84.4201 75.6508 82.4193C75.8861 82.0279 76.1445 81.6449 76.329 81.2305C76.7454 80.2952 76.4408 79.3458 75.6041 78.845C74.8532 78.3949 73.915 78.5631 73.266 79.281C73.0972 79.4692 72.9516 79.6806 72.8217 79.8979C71.4063 82.2452 69.9489 84.5691 68.6034 86.9567C67.8829 88.2337 67.3178 89.6033 66.7627 90.9629C66.3568 91.9564 66.2155 93.0151 66.2819 94.1024C66.339 95.0609 66.6251 95.8902 67.3841 96.5565C68.4809 97.8606 69.9122 98.7117 71.5804 99.1118C73.3565 99.5381 75.1464 99.9284 76.9487 100.22C79.9569 100.707 82.9801 101.103 85.9978 101.533C86.3486 101.582 86.704 101.641 87.0567 101.634C87.9732 101.615 88.7256 100.947 88.8563 100.077Z" fill="#26A69A"/>
</svg>
