<svg width="172" height="171" viewBox="0 0 172 171" fill="none" xmlns="http://www.w3.org/2000/svg">
<g opacity="0.3" clip-path="url(#clip0_23_550)">
<path d="M112.812 74.4722C111.369 74.6961 110.384 76.0485 110.609 77.4851C111.879 85.6418 109.576 94.0166 104.289 100.469C99.0044 106.92 91.2448 110.828 82.9977 111.188C81.5416 111.254 80.4128 112.482 80.477 113.94C80.5392 115.397 81.7725 116.523 83.229 116.461C92.9735 116.035 102.137 111.424 108.372 103.814C114.608 96.202 117.324 86.3086 115.825 76.6745C115.599 75.2342 114.25 74.2487 112.812 74.4722Z" fill="#26A69A"/>
<path d="M38.9657 46.9517C17.7561 72.8404 21.5629 111.159 47.4516 132.369C73.3403 153.579 111.659 149.772 132.869 123.883C154.079 97.9945 150.272 59.6755 124.383 38.4658C98.4943 17.2562 60.1754 21.063 38.9657 46.9517ZM128.786 120.538C109.42 144.177 74.4356 147.653 50.7964 128.286C27.1573 108.92 23.6818 73.9357 43.0485 50.2966C62.4151 26.6575 97.3991 23.1819 121.038 42.5486C144.677 61.9152 148.153 96.8992 128.786 120.538Z" fill="#26A69A"/>
<path d="M85.0066 57.3796C80.3958 63.0076 81.2233 71.3377 86.8514 75.9485C87.9782 76.8717 89.642 76.7064 90.5652 75.5796C91.4884 74.4527 91.3231 72.789 90.1962 71.8658C86.8198 69.0996 86.3232 64.1008 89.0894 60.7244C91.8556 57.348 96.8543 56.8514 100.231 59.6175C101.358 60.5407 103.021 60.3754 103.945 59.2486C104.868 58.1218 104.702 56.458 103.576 55.5348C97.9476 50.9239 89.6175 51.7515 85.0066 57.3796Z" fill="#26A69A"/>
<path d="M73.472 92.2797C74.5988 93.2028 76.2626 93.0375 77.1858 91.9107C78.109 90.7839 77.9437 89.1201 76.8168 88.1969C71.1888 83.586 62.8587 84.4136 58.2479 90.0417C53.637 95.6697 54.4645 104 60.0926 108.611C61.2195 109.534 62.8832 109.369 63.8064 108.242C64.7296 107.115 64.5643 105.451 63.4375 104.528C60.061 101.762 59.5644 96.7629 62.3306 93.3865C65.0968 90.0101 70.0956 89.5135 73.472 92.2797Z" fill="#26A69A"/>
</g>
<defs>
<clipPath id="clip0_23_550">
<rect width="121.393" height="121.393" fill="white" transform="translate(0.5 93.9033) rotate(-50.6735)"/>
</clipPath>
</defs>
</svg>
