<svg width="163" height="212" viewBox="0 0 163 212" fill="none" xmlns="http://www.w3.org/2000/svg">
<g opacity="0.5" clip-path="url(#clip0_23_439)">
<path d="M139.141 92.2618C137.354 92.5392 136.133 94.2146 136.412 95.9943C137.986 106.1 135.132 116.475 128.583 124.469C122.035 132.461 112.422 137.303 102.205 137.748C100.401 137.83 99.0025 139.351 99.0821 141.158C99.1591 142.962 100.687 144.358 102.491 144.281C114.564 143.753 125.916 138.041 133.641 128.613C141.367 119.182 144.73 106.926 142.873 94.9901C142.594 93.2057 140.923 91.9848 139.141 92.2618Z" fill="#64B5F6"/>
<path d="M47.6544 58.1674C21.3782 90.2403 26.0944 137.713 58.1673 163.989C90.2403 190.265 137.713 185.549 163.989 153.476C190.265 121.403 185.549 73.9306 153.476 47.6544C121.403 21.3782 73.9306 26.0944 47.6544 58.1674ZM158.931 149.332C134.938 178.618 91.5972 182.924 62.3112 158.931C33.0252 134.938 28.7195 91.5972 52.7124 62.3112C76.7053 33.0252 120.046 28.7195 149.332 52.7124C178.618 76.7054 182.924 120.046 158.931 149.332Z" fill="#64B5F6"/>
<path d="M104.694 71.0861C98.9813 78.0586 100.007 88.3785 106.979 94.0908C108.375 95.2345 110.436 95.0298 111.58 93.6338C112.724 92.2377 112.519 90.1765 111.123 89.0328C106.94 85.6058 106.325 79.413 109.752 75.23C113.179 71.047 119.371 70.4318 123.554 73.8587C124.951 75.0024 127.012 74.7977 128.155 73.4016C129.299 72.0056 129.094 69.9444 127.698 68.8007C120.726 63.0884 110.406 64.1136 104.694 71.0861Z" fill="#64B5F6"/>
<path d="M90.4041 114.323C91.8001 115.467 93.8613 115.262 95.005 113.866C96.1487 112.47 95.944 110.409 94.548 109.265C87.5755 103.553 77.2555 104.578 71.5432 111.55C65.8309 118.523 66.8562 128.843 73.8287 134.555C75.2247 135.699 77.2859 135.494 78.4296 134.098C79.5733 132.702 79.3685 130.641 77.9725 129.497C73.7895 126.07 73.1743 119.877 76.6013 115.694C80.0282 111.511 86.2211 110.896 90.4041 114.323Z" fill="#64B5F6"/>
</g>
<defs>
<clipPath id="clip0_23_439">
<rect width="150.391" height="150.391" fill="white" transform="translate(0 116.335) rotate(-50.6735)"/>
</clipPath>
</defs>
</svg>
