<svg width="24" height="25" viewBox="0 0 24 25" fill="none" xmlns="http://www.w3.org/2000/svg">
<path d="M13.7309 3.79725L15.4909 7.31725C15.7309 7.80725 16.3709 8.27725 16.9109 8.36725L20.1009 8.89725C22.1409 9.23725 22.6209 10.7172 21.1509 12.1772L18.6709 14.6572C18.2509 15.0772 18.0209 15.8872 18.1509 16.4672L18.8609 19.5372C19.4209 21.9672 18.1309 22.9072 15.9809 21.6372L12.9909 19.8672C12.4509 19.5472 11.5609 19.5472 11.0109 19.8672L8.02089 21.6372C5.88089 22.9072 4.58089 21.9572 5.14089 19.5372L5.85089 16.4672C5.98089 15.8872 5.75089 15.0772 5.33089 14.6572L2.85089 12.1772C1.39089 10.7172 1.86089 9.23725 3.90089 8.89725L7.09089 8.36725C7.62089 8.27725 8.26089 7.80725 8.50089 7.31725L10.2609 3.79725C11.2209 1.88725 12.7809 1.88725 13.7309 3.79725Z" fill="#26A69A"/>
</svg>
