<svg width="24" height="24" viewBox="0 0 24 24" fill="none" xmlns="http://www.w3.org/2000/svg">
<g clip-path="url(#clip0_23_480)">
<path d="M12 0C5.38316 0 0 5.38316 0 12C0 18.6168 5.38316 23.9999 12 23.9999C18.6168 23.9999 24 18.6167 24 12C24 5.38328 18.6167 0 12 0ZM18.0549 10.6568L15.6839 12.968L16.2437 16.2315C16.3018 16.5709 16.1623 16.914 15.8837 17.1164C15.726 17.2309 15.5394 17.2892 15.3518 17.2892C15.2079 17.2892 15.0632 17.2548 14.9309 17.1853L12.0001 15.6445L9.06925 17.1854C8.76427 17.3458 8.39498 17.319 8.11642 17.1165C7.83774 16.9141 7.69815 16.571 7.75642 16.2316L8.3162 12.9681L5.94499 10.6568C5.6984 10.4163 5.60972 10.0568 5.71613 9.72928C5.82254 9.40174 6.10568 9.16299 6.44662 9.11352L9.72325 8.63735L11.1886 5.66811C11.3411 5.35927 11.6556 5.16371 12 5.16371C12.3444 5.16371 12.6589 5.35927 12.8114 5.66811L14.2768 8.63735L17.5534 9.11352C17.8942 9.16299 18.1775 9.40174 18.2839 9.72928C18.3903 10.0568 18.3015 10.4165 18.0549 10.6568Z" fill="#26A69A"/>
</g>
<defs>
<clipPath id="clip0_23_480">
<rect width="24" height="24" fill="white"/>
</clipPath>
</defs>
</svg>
