<svg width="46" height="46" viewBox="0 0 46 46" fill="none" xmlns="http://www.w3.org/2000/svg">
<g clip-path="url(#clip0_739_3596)">
<path d="M34.6856 30.4524C33.2154 29.001 31.3801 29.001 29.9193 30.4524C28.805 31.5574 27.6906 32.6624 26.595 33.7861C26.2954 34.0951 26.0426 34.1606 25.6774 33.9546C24.9563 33.5613 24.1885 33.2429 23.4955 32.8122C20.2649 30.7802 17.5587 28.1676 15.1615 25.2273C13.9723 23.7665 12.9141 22.2027 12.1744 20.4422C12.0245 20.0864 12.0526 19.8523 12.3429 19.562C13.4572 18.4852 14.5435 17.3802 15.6391 16.2752C17.1654 14.7395 17.1654 12.9416 15.6297 11.3965C14.7589 10.5163 13.888 9.65483 13.0171 8.77461C12.1182 7.87566 11.2286 6.96734 10.3203 6.07775C8.85012 4.64505 7.01477 4.64505 5.55397 6.08712C4.43028 7.19208 3.35341 8.32513 2.21099 9.41137C1.15285 10.4133 0.619102 11.64 0.506733 13.0727C0.328815 15.4044 0.900024 17.6049 1.70533 19.7493C3.35341 24.1879 5.86298 28.1302 8.90631 31.7447C13.0171 36.6327 17.9239 40.5001 23.6641 43.2906C26.2486 44.5454 28.9267 45.5099 31.8389 45.6691C33.8428 45.7814 35.5846 45.2758 36.9798 43.712C37.9349 42.6445 39.0118 41.6706 40.0231 40.6499C41.5214 39.1329 41.5307 37.2976 40.0419 35.7993C38.2627 34.0108 36.4741 32.2316 34.6856 30.4524Z" fill="#26A69A"/>
<path d="M32.8972 22.9893L36.3526 22.3994C35.8095 19.2249 34.3112 16.3502 32.0357 14.0653C29.6292 11.6588 26.5859 10.1418 23.2335 9.67358L22.7466 13.1477C25.3404 13.5129 27.7002 14.6834 29.5636 16.5468C31.3241 18.3073 32.4759 20.5359 32.8972 22.9893Z" fill="#26A69A"/>
<path d="M38.3002 7.96933C34.3111 3.98024 29.2639 1.4613 23.6923 0.684082L23.2053 4.15815C28.0185 4.83237 32.3821 7.0142 35.8281 10.4508C39.0962 13.7189 41.2405 17.8484 42.0177 22.39L45.4731 21.8001C44.5648 16.5375 42.0833 11.7618 38.3002 7.96933Z" fill="#26A69A"/>
</g>
<defs>
<clipPath id="clip0_739_3596">
<rect width="45" height="45" fill="white" transform="translate(0.473633 0.684082)"/>
</clipPath>
</defs>
</svg>
