<svg width="178" height="106" viewBox="0 0 178 106" fill="none" xmlns="http://www.w3.org/2000/svg">
<g opacity="0.5">
<path fill-rule="evenodd" clip-rule="evenodd" d="M131.52 43.3399C134.08 50.9481 135.273 58.8573 135.025 66.9022C134.863 72.1045 134.364 77.2978 134.019 82.4928C133.959 83.3726 133.799 84.2675 133.886 85.1352C134.09 87.1966 135.565 88.5524 137.614 88.7229C139.611 88.8906 141.215 87.7128 141.739 85.645C141.902 85.0028 141.972 84.3349 142.026 83.6731C142.372 79.5863 142.73 75.5037 143.024 71.4141C143.753 61.3466 142.569 51.4588 139.595 41.8567C136.908 33.1782 132.638 25.294 126.061 18.8745C117.665 10.6783 107.741 5.96799 95.8618 5.25317C85.3558 4.61704 75.599 6.65031 66.4926 11.8931C65.9268 12.2174 65.321 12.467 64.7285 12.7525C62.9942 11.8186 61.3659 10.8807 59.6892 10.0463C51.9916 6.22356 43.6785 4.92812 35.2398 4.34261C26.9236 3.76319 18.6361 4.48654 10.3575 5.2565C9.70084 5.31918 9.0233 5.38977 8.40584 5.60375C6.65036 6.21963 5.61763 7.92352 5.78334 9.7832C5.9332 11.4415 7.20059 12.9116 8.91233 13.2159C9.76822 13.3693 10.6743 13.3301 11.549 13.2724C14.9773 13.0481 18.3999 12.7747 21.8244 12.5304C30.8389 11.8892 39.7625 12.4014 48.565 14.5714C51.5922 15.3175 54.4471 16.4573 57.5862 18.1784C56.462 19.362 55.6591 20.257 54.808 21.1023C49.5695 26.3059 46.223 32.6133 44.0606 39.5985C42.492 44.6527 42.5518 49.6756 44.8059 54.5268C46.9884 59.2273 50.7967 61.9295 55.892 62.4704C60.072 62.9153 64.1196 61.9645 67.6086 59.5564C75.8965 53.8332 80.1135 45.9791 79.511 35.7815C79.1944 30.4124 77.15 25.6864 73.903 21.4439C73.1836 20.5062 72.4803 19.5557 71.8161 18.6681C72.1041 18.3117 72.2055 18.0848 72.3782 17.9863C72.9564 17.6541 73.5467 17.3457 74.149 17.0685C80.4127 14.2046 86.9627 13.0298 93.8643 13.2641C102.601 13.5613 110.325 16.3334 117.154 21.7763C124.256 27.4386 128.682 34.9163 131.52 43.3399ZM69.4636 45.813C67.9686 48.571 66.0105 50.9286 63.3417 52.6427C61.6251 53.7469 59.7562 54.3471 57.7219 54.3751C54.8275 54.4123 52.9213 53.0868 51.903 50.3798C50.9353 47.8063 50.8944 45.1856 51.6429 42.5712C53.736 35.2735 57.5947 29.0803 63.3945 24.1388C63.7136 23.8619 64.1099 23.6712 64.4425 23.459C71.2737 28.6422 73.455 38.4492 69.4636 45.813Z" fill="#F06292"/>
<path fill-rule="evenodd" clip-rule="evenodd" d="M172.46 79.5889C171.476 77.9132 169.431 77.1698 167.563 77.8893C166.744 78.2078 165.983 78.6899 165.225 79.1414C159.891 82.3181 154.598 85.5583 149.225 88.6646C146.063 90.4906 142.794 92.1403 139.541 93.8046C138.563 94.3086 137.507 94.7431 136.437 94.959C131.954 95.8647 131.216 94.9326 130.133 91.6074C129.213 88.7754 128.464 85.8579 127.967 82.9174C127.119 77.9002 126.529 72.8361 125.825 67.7894C125.686 66.8027 125.598 65.7985 125.342 64.8428C124.763 62.6853 122.943 61.4941 120.837 61.7943C118.946 62.0624 117.587 63.6359 117.472 65.744C117.444 66.295 117.488 66.8533 117.566 67.4002C118.39 73.3231 119.111 79.2642 120.109 85.1596C120.641 88.3138 121.564 91.4118 122.49 94.479C123.166 96.7206 124.38 98.7094 125.986 100.461C127.399 102.008 129.023 103.021 131.225 103.108C134.875 103.813 138.47 103.29 141.848 101.677C145.444 99.9609 149.014 98.1647 152.471 96.1845C158.239 92.8793 163.907 89.3973 169.614 85.9827C170.276 85.5838 170.959 85.1962 171.548 84.7008C173.076 83.4096 173.434 81.2436 172.46 79.5889Z" fill="#F06292"/>
</g>
</svg>
